<?xml version="1.0" encoding="UTF-8"?>
<svg width="750px" height="750px" viewBox="0 0 750 750" version="1.1" xmlns="http://www.w3.org/2000/svg" xmlns:xlink="http://www.w3.org/1999/xlink">
    <!-- Generator: Sketch 52.6 (67491) - http://www.bohemiancoding.com/sketch -->
    <title>Artboard Copy 3</title>
    <desc>Created with Sketch.</desc>
    <g id="Artboard-Copy-3" stroke="none" stroke-width="1" fill="none" fill-rule="evenodd">
        <g id="amazon-icon" transform="translate(0.000000, 34.000000)" fill-rule="nonzero">
            <path d="M206.590909,334.862 C206.590909,303.49 214.317955,276.664894 229.772727,254.386 C245.226818,232.107106 266.363182,215.284894 293.181818,203.918 C317.727273,193.460894 347.954318,185.958894 383.863636,181.412 C396.136364,180.048 416.136136,178.229106 443.863636,175.956 L443.863636,164.362 C443.863636,135.263106 440.681591,115.712894 434.318182,105.71 C424.772727,92.07 409.772727,85.25 389.318182,85.25 L383.863636,85.25 C368.863636,86.614 355.909091,91.388 345,99.572 C334.090909,107.756 327.045,119.122894 323.863636,133.672 C322.045227,142.765106 317.499545,147.994 310.227273,149.358 L231.818182,139.81 C224.090455,137.991106 220.227273,133.899106 220.227273,127.534 C220.227273,126.17 220.454318,124.578894 220.909091,122.76 C228.636136,82.294894 247.613182,52.286894 277.840909,32.736 C308.067955,13.185106 343.408636,2.273106 383.863636,0 L400.909091,0 C452.727273,0 493.181591,13.412894 522.272727,40.238 C526.835667,44.8053826 531.051893,49.7066281 534.886364,54.901 C538.749545,60.129894 541.817727,64.79 544.090909,68.882 C546.363409,72.974 548.408864,78.884894 550.227273,86.614 C552.045,94.343106 553.408636,99.685894 554.318182,102.641 C555.227045,105.596106 555.908864,111.961894 556.363636,121.737 C556.817727,131.512106 557.045455,137.309106 557.045455,139.128 L557.045455,304.172 C557.045455,315.993106 558.75,326.791894 562.159091,336.567 C565.568182,346.342106 568.863409,353.389894 572.045455,357.709 C575.226818,362.028106 580.454318,368.962 587.727273,378.51 C590.454545,382.602 591.818182,386.239106 591.818182,389.422 C591.818182,393.059106 589.999773,396.242 586.363636,398.97 C548.635909,431.706 528.181364,449.438 525,452.166 C519.545455,456.258 512.954318,456.712894 505.227273,453.53 C498.863182,448.074 493.295455,442.845106 488.522727,437.844 C483.75,432.842894 480.340909,429.205106 478.295455,426.932 C476.25,424.658894 472.954091,420.225894 468.409091,413.633 C463.863409,407.040106 460.681364,402.607106 458.863636,400.334 C433.408636,428.068894 408.409091,445.346 383.863636,452.166 C368.408864,456.712894 349.317955,458.986 326.590909,458.986 C291.590455,458.986 262.840909,448.187894 240.340909,426.591 C217.840909,404.994106 206.590909,374.418 206.590909,334.862 Z M323.863636,321.222 C323.863636,338.954 328.295455,353.162106 337.159091,363.847 C346.022727,374.531894 357.954545,379.874 372.954545,379.874 C374.318182,379.874 376.249773,379.646894 378.75,379.192 C381.249545,378.737106 382.954091,378.51 383.863636,378.51 C402.954545,373.508894 417.726818,361.232894 428.181818,341.682 C433.181591,333.043106 436.931591,323.609 439.431818,313.379 C441.931364,303.149 443.295,294.851106 443.522727,288.486 C443.749773,282.120894 443.863636,271.663106 443.863636,257.114 L443.863636,240.064 C417.499773,240.064 397.5,241.882894 383.863636,245.52 C343.863409,256.886894 323.863636,282.120894 323.863636,321.222 Z" id="Shape" fill="#000000"></path>
            <path d="M1.36363636,529.232 C3.63613636,525.594894 7.27227273,525.367106 12.2727273,528.55 C125.908636,594.476894 249.545455,627.44 383.181818,627.44 C472.272273,627.44 560.226818,610.844894 647.045455,577.654 C649.317955,576.744894 652.613182,575.380894 656.931818,573.562 C661.249773,571.743106 664.317955,570.379106 666.136364,569.47 C672.954545,566.742 678.295227,568.106 682.159091,573.562 C686.022273,579.018 684.7725,584.019106 678.409091,588.566 C670.227273,594.476894 659.772273,601.296894 647.045455,609.026 C607.954091,632.214 564.317727,650.173106 516.136364,662.904 C467.954318,675.634894 420.908864,682 375,682 C304.090909,682 237.045,669.610106 173.863636,644.831 C110.681591,620.051894 54.0906818,585.156 4.09090909,540.144 C1.36363636,537.870894 0,535.597106 0,533.324 C0,531.96 0.454090909,530.596 1.36363636,529.232 Z" id="Path" fill="#FF9901"></path>
            <path d="M610.227273,540.826 C611.136136,539.007106 612.499773,537.188894 614.318182,535.37 C625.681364,527.640894 636.590455,522.412 647.045455,519.684 C664.317955,515.137106 681.136364,512.636894 697.5,512.182 C702.045,511.727106 706.363636,511.954894 710.454545,512.864 C730.909091,514.682894 743.181818,518.092894 747.272727,523.094 C749.090455,525.822 750,529.914 750,535.37 L750,540.144 C750,556.057106 745.681364,574.812106 737.045455,596.409 C728.408864,618.005894 716.363182,635.396894 700.909091,648.582 C698.635909,650.400894 696.590455,651.31 694.772727,651.31 C693.863182,651.31 692.954318,651.082894 692.045455,650.628 C689.318182,649.264 688.636364,646.763106 690,643.126 C706.817727,603.57 715.227273,576.062894 715.227273,560.604 C715.227273,555.602894 714.317727,551.965106 712.5,549.692 C707.954318,544.236 695.226818,541.508 674.318182,541.508 C666.590455,541.508 657.499773,541.962894 647.045455,542.872 C635.681591,544.236 625.227273,545.6 615.681818,546.964 C612.954545,546.964 611.136136,546.509106 610.227273,545.6 C609.317727,544.690894 609.090682,543.781106 609.545455,542.872 C609.545455,542.417106 609.7725,541.735106 610.227273,540.826 Z" id="Path" fill="#FF9901"></path>
        </g>
    </g>
</svg>