<svg xmlns="http://www.w3.org/2000/svg" width="125" height="125" viewBox="0 0 125 125">
  <g fill="#5757F5" fill-rule="evenodd" transform="translate(13)">
    <path d="M43.13 68.18L77.6 122.18C78.4285285 123.436632 79.8562479 124.16568 81.36 124.1L94.13 124.1C95.2939941 124.113492 96.4143951 123.657743 97.2384587 122.83556 98.0625222 122.013378 98.5208317 120.894022 98.51 119.73L98.51 5.37C98.4919476 3.50116146 97.3004314 1.84565896 95.5340293 1.23516166 93.7676272.624664365 91.8081605 1.19113595 90.64 2.65L43.13 62.93C42.0776867 64.5218053 42.0776867 66.5881947 43.13 68.18zM4.38 124.08L27.12 124.08C28.2839941 124.093492 29.4043951 123.637743 30.2284587 122.81556 31.0525222 121.993378 31.5108317 120.874022 31.5 119.71L31.5 90.71C31.47124 88.843932 30.2760627 87.1960235 28.5112237 86.5890802 26.7463847 85.9821368 24.7904405 86.5463474 23.62 88L.88 117C-.109597334 118.337732-.268143829 120.116497.469261115 121.608162 1.20666606 123.099827 2.71622351 124.053964 4.38 124.08z"/>
  </g>
</svg>
