<?xml version="1.0" encoding="UTF-8"?>
<svg width="67px" height="67px" viewBox="0 0 67 67" version="1.1" xmlns="http://www.w3.org/2000/svg" xmlns:xlink="http://www.w3.org/1999/xlink">
    <!-- Generator: Sketch 52.6 (67491) - http://www.bohemiancoding.com/sketch -->
    <title>Artboard</title>
    <desc>Created with Sketch.</desc>
    <defs>
        <linearGradient x1="99.684716%" y1="15.8138128%" x2="39.8444399%" y2="97.4388388%" id="linearGradient-1">
            <stop stop-color="#0052CC" offset="0%"></stop>
            <stop stop-color="#2684FF" offset="92.3%"></stop>
        </linearGradient>
    </defs>
    <g id="Artboard" stroke="none" stroke-width="1" fill="none" fill-rule="evenodd">
        <g id="Atlassian-horizontal-blue-rgb">
            <path d="M20.354,31.115 C19.9597027,30.5990347 19.3244152,30.3266684 18.6788373,30.3968088 C18.0332594,30.4669492 17.4712885,30.8693946 17.197,31.458 L1.2,63.442 C0.903696982,64.0346687 0.935370504,64.7384967 1.28371034,65.3021553 C1.63205017,65.865814 2.24739022,66.2089373 2.91,66.209 L25.185,66.209 C25.9138974,66.2259226 26.5842535,65.8115563 26.895,65.152 C31.7,55.223 28.788,40.126 20.354,31.115 Z" id="Path" fill="url(#linearGradient-1)"></path>
            <path d="M32.087,2.024 C23.9778882,14.5013267 23.0419733,30.3279032 29.624,43.674 L40.363,65.152 C40.686834,65.7997365 41.3488239,66.2089314 42.073,66.209 L64.344,66.209 C65.0066098,66.2089373 65.6219498,65.865814 65.9702897,65.3021553 C66.3186295,64.7384967 66.350303,64.0346687 66.054,63.442 C66.054,63.442 36.092,3.511 35.339,2.012 C35.0352061,1.3893741 34.4020183,0.99540475 33.709236,0.997961142 C33.0164538,1.00051753 32.3861907,1.39914907 32.087,2.024 Z" id="Path" fill="#2684FF"></path>
        </g>
    </g>
</svg>