<svg xmlns="http://www.w3.org/2000/svg" width="165" height="165" viewBox="0 0 165 165">
  <g fill="none" fill-rule="evenodd" transform="translate(0 14)">
    <path fill="#B3DCFF" d="M82.41,0 C38.07,0 3.34,56.4 0.05,104 C13.96,128.15 47.51,137.22 82.4,137.22 C117.29,137.22 150.84,128.14 164.75,104 C161.47,56.4 126.74,0 82.41,0 Z"/>
    <path fill="#5ECC62" d="M133.73,59.22 C124,46.67 111.59,33.39 104.4,33.39 C97.21,33.39 77.1,69 67.87,69 C58.64,69 53.87,52.8 42.51,52.86 C27.06,52.95 11.91,98.38 11.91,98.38 C11.91,98.38 18.17,126.15 83.7,126.15 C149.23,126.15 154.46,98.84 154.46,98.84 C154.46,98.84 147.72,77.26 133.73,59.22 Z"/>
    <path fill="#000" fill-rule="nonzero" d="M47.29,94.49 C47.29,89.9060366 51.0060366,86.19 55.59,86.19 C60.1739634,86.19 63.89,89.9060366 63.89,94.49 C63.89,99.0739634 60.1739634,102.79 55.59,102.79 C51.0060366,102.79 47.29,99.0739634 47.29,94.49 Z M100.92,94.49 C100.92,99.0739634 104.636037,102.79 109.22,102.79 C113.803963,102.79 117.52,99.0739634 117.52,94.49 C117.52,89.9060366 113.803963,86.19 109.22,86.19 C104.636037,86.19 100.92,89.9060366 100.92,94.49 Z M99.43,106.54 C100.084457,105.289075 99.6009249,103.744458 98.3499999,103.09 C97.099075,102.435543 95.5544575,102.919075 94.9,104.17 C94.76,104.43 91.43,110.42 82.61,110.42 C77.5517208,110.540431 72.7634655,108.142557 69.83,104.02 C69.3548368,103.241161 68.5002622,102.774981 67.5881862,102.797065 C66.6761102,102.819149 65.8450989,103.326142 65.4081862,104.127065 C64.9712735,104.927988 64.9948368,105.901161 65.47,106.68 C69.3357292,112.318682 75.7744814,115.639485 82.61,115.52 C94.63,115.54 99.24,106.91 99.43,106.55 L99.43,106.54 Z"/>
    <path fill="#00AD45" d="M68.9,84.19 C58.72,84.19 53.51,74.19 50.68,67.95 C48.13,62.37 47.68,53.55 40.48,53.31 C41.113369,53.038433 41.7913529,52.8858866 42.48,52.86 C53.85,52.86 58.65,69 67.87,69 C77.09,69 97.2,33.4 104.4,33.4 C105.996338,33.4832573 107.551078,33.9387207 108.94,34.73 C107.496421,34.4606499 106.010881,34.8951702 104.94,35.9 C102.6,38.21 81.5,84.19 68.9,84.19 Z"/>
  </g>
</svg>
