<?xml version="1.0" encoding="UTF-8"?>
<svg width="2504px" height="2504px" viewBox="0 0 2504 2504" version="1.1" xmlns="http://www.w3.org/2000/svg" xmlns:xlink="http://www.w3.org/1999/xlink">
    <!-- Generator: Sketch 52.6 (67491) - http://www.bohemiancoding.com/sketch -->
    <title>disney-logo</title>
    <desc>Created with Sketch.</desc>
    <g id="disney-logo" stroke="none" stroke-width="1" fill="none" fill-rule="evenodd">
        <g id="disney" transform="translate(36.000000, 748.000000)" fill="#000000" fill-rule="nonzero">
            <path d="M1221.47058,109.638673 C1237.97645,110.410542 1253.74223,116.715029 1266.22924,127.536948 C1283.24557,143.645396 1287.70717,170.505779 1279.65295,191.99668 C1248.34394,256.443441 1173.88452,299.490091 1123.00413,313.730893 C1092.56409,320.890203 1054.0828,320.890203 1026.3275,310.151238 C1012.89083,318.205462 1001.55525,344.23578 985.148499,333.418996 C961.400859,314.872232 981.957936,285.845898 968.248895,265.249912 C965.421486,261.008799 958.301085,260.697524 954.72143,253.7587 C935.915271,212.579697 959.195999,173.190521 985.148499,141.868538 C1028.41563,93.5950736 1152.54925,39.8094586 1221.47058,109.638673 Z M1077.35056,141.855569 C1053.17492,146.330138 1025.87356,156.848617 1011.11397,174.085434 C996.341406,191.309282 986.951296,208.105128 995.900434,226.003403 C1027.23539,202.735645 1042.44892,170.505779 1077.36353,150.817676 C1077.35056,147.225051 1082.72004,144.54031 1077.35056,141.855569 Z M1223.27338,150.817676 C1161.49839,145.435224 1114.94991,191.99668 1071.08616,236.742369 C1068.40142,243.901679 1052.29297,251.955903 1064.82176,260.010127 C1123.91201,265.379609 1180.30455,248.389217 1223.27338,208.987072 C1235.81514,197.353193 1244.73834,182.139658 1238.49989,166.018241 C1235.81514,159.766814 1229.49887,153.502418 1223.27338,150.817676 Z M1758.54855,417.566831 C1787.19876,487.396045 1811.36143,597.483409 1758.54855,664.627882 C1744.22993,680.73633 1719.17234,695.586711 1703.06389,683.421071 C1643.97365,635.990641 1618.92903,567.951254 1582.22459,507.071178 C1576.85511,504.386437 1576.85511,511.558717 1574.17037,514.243458 C1560.74666,576.005478 1585.80425,656.573658 1543.7433,704.899002 C1527.63485,707.583743 1512.56399,699.296063 1507.03887,683.421071 C1486.44288,619.869223 1507.90784,553.619664 1513.27732,490.067816 C1525.81909,457.837951 1531.18857,420.251572 1558.94387,396.07593 C1603.70253,413.974206 1625.18046,464.115317 1651.11999,500.819751 C1669.93911,528.562078 1685.13968,559.89703 1706.61761,584.954616 C1725.4108,576.900392 1716.16336,552.335658 1715.57972,537.511216 C1708.39447,479.328851 1692.28602,425.621055 1677.05952,370.123431 C1676.19054,355.80481 1668.13632,331.629168 1683.32391,322.680031 C1723.65988,340.591276 1740.6373,382.652224 1758.54855,417.566831 Z M1488.21974,396.07593 C1488.21974,409.512607 1477.48077,426.295482 1468.5057,428.305796 C1382.581,441.729503 1286.79929,433.675279 1206.24408,460.522692 C1203.55934,470.366743 1215.19322,472.156571 1221.45761,474.841312 C1290.36598,485.580278 1362.8929,488.265019 1430.03737,505.281351 C1465.53562,514.295337 1478.38866,556.317375 1481.0734,591.219013 C1482.72056,618.740854 1472.13723,652.086119 1445.26388,670.892278 C1379.04026,712.966196 1277.88906,711.163398 1210.73162,672.695076 C1185.06445,658.298637 1160.60348,635.108697 1158.81365,606.458486 C1158.96929,583.709519 1168.67067,565.798273 1184.77912,557.225259 C1249.23885,531.25979 1328.89915,545.60435 1384.40974,578.70319 C1387.96346,596.614435 1368.58663,595.641702 1359.31325,601.983917 C1297.53826,637.793438 1251.00274,561.725767 1193.71529,589.442155 C1185.66106,594.811638 1179.83764,609.791716 1189.24072,614.51271 C1259.95188,645.847662 1338.73023,623.461848 1408.54647,603.773745 C1416.6007,601.089004 1426.45772,593.03478 1427.33966,584.980556 C1424.65492,556.330345 1392.43803,550.078918 1371.84204,542.024694 C1310.97493,526.81116 1243.84343,526.81116 1178.48878,520.546764 C1165.95999,517.862022 1149.99421,509.133371 1146.27189,499.068833 C1139.11258,477.590902 1139.11258,448.045778 1155.22103,430.147503 C1238.46098,356.738633 1364.66976,363.016 1470.29552,382.704103 C1477.4678,385.336965 1485.52203,388.021706 1488.21974,396.07593 Z M1097.05163,430.095623 C1105.10585,516.020316 1109.58042,595.706551 1107.7906,686.105813 C1106.00077,697.726722 1092.57706,700.424433 1083.62792,704.899002 C1069.3093,707.583743 1050.80145,704.535848 1045.13366,696.844778 C1024.55064,663.707029 1031.70995,618.974309 1029.92013,578.69022 C1032.60487,515.151342 1031.70995,446.217041 1049.6212,387.126792 C1053.04522,378.540808 1063.04491,371.018344 1071.09913,376.374857 C1092.57706,387.126792 1096.15672,408.617693 1097.05163,430.095623 Z M2091.5732,417.566831 C2095.87916,424.803959 2100.37967,435.983897 2091.5732,440.834589 C2051.28911,458.732864 1996.69937,450.67864 1950.13792,456.048123 C1937.60912,466.787088 1927.7521,484.685364 1932.2137,500.806782 C1936.71421,503.491523 1940.72187,507.576999 1945.66335,507.058208 C1974.28762,508.861006 2017.26942,493.634502 2036.08855,520.481915 C2040.67984,528.47129 2035.466,558.301749 2022.66484,558.976177 C1987.73726,563.476686 1930.30714,554.592397 1913.43348,563.476686 C1891.95555,577.795306 1893.73241,605.537633 1885.67818,627.936417 C1900.90469,637.780469 1916.84453,627.702961 1934.89844,625.238706 C1968.04916,619.869223 2004.7536,610.025172 2037.85244,617.184482 C2044.11683,628.818361 2053.07894,641.360124 2046.80157,655.678744 C1990.37013,700.437403 1917.58381,746.311461 1840.03758,713.861109 C1810.93343,700.813526 1797.96366,656.573658 1807.82069,619.000249 C1814.07211,592.139866 1841.81444,566.187366 1824.82405,537.537156 C1822.13931,524.995393 1829.31159,514.269398 1840.05055,511.584656 C1869.58271,511.584656 1863.30534,474.880222 1878.53184,457.86389 C1861.52848,439.070701 1818.57262,439.965615 1823.04719,402.366266 C1843.64318,391.627301 1868.71373,395.206956 1891.95555,391.627301 C1944.76843,380.875366 2003.84571,374.610969 2057.59242,380.875366 C2068.29247,383.028347 2082.62406,404.143124 2091.5732,417.566831 Z M813.286144,213.47461 C895.890577,280.995206 1003.05974,396.0889 989.636037,528.562078 C973.51462,633.3059 862.519372,712.071282 768.527486,737.141837 C677.220341,763.989251 562.645438,761.304509 469.535496,739.826579 C463.271099,756.84291 457.006703,777.412957 437.3186,784.585237 C424.789807,789.059806 408.668389,786.375065 398.824338,778.320841 C371.08201,752.355372 393.454855,702.22723 353.170765,686.131752 C274.392413,653.006973 189.349665,587.652327 149.078545,507.097118 C143.709062,490.98867 149.973459,474.880222 159.81751,462.351429 C221.5925,413.118201 299.462969,393.430098 377.346407,378.203594 C381.820976,379.993422 380.031148,373.729025 383.610803,371.939198 C388.085372,318.231401 389.8752,263.615721 406.878561,215.277408 C410.756521,208.494221 420.302268,206.32827 426.579634,210.802839 C475.812862,248.389217 452.532134,319.126315 474.023034,370.1364 C568.01492,374.610969 662.006807,379.085538 736.29762,431.911391 C761.368175,452.494407 767.476935,491.805765 759.565378,514.269398 C751.666791,536.694121 725.558654,552.76366 701.383013,554.527548 C685.261595,554.527548 654.834527,556.096889 656.624354,543.801552 C658.414182,531.493245 711.382701,511.3512 695.118616,494.555355 C671.73413,470.418623 554.733881,456.061093 482.219926,447.111955 C473.270788,445.322127 465.060927,448.006869 465.060927,457.85092 C463.271099,525.877337 457.901617,601.063064 469.535496,666.430679 C470.430409,670.918218 475.799892,676.287701 480.287431,677.156675 C608.28604,697.752661 743.45693,686.105813 843.713213,612.709913 C890.261699,575.136504 905.488203,522.284712 897.421009,464.115317 C857.136919,302.097014 687.959306,204.512503 549.208761,141.855569 C414.050841,82.7782897 264.548362,52.3382515 104.319886,60.4054452 C78.8083588,62.2730914 38.3816016,71.0795617 38.083297,80.1065181 C37.7849924,89.1334744 83.8795368,86.2930959 78.354417,103.374276 C72.8422669,120.442487 25.9954761,110.313101 12.1178277,106.059018 C-1.75982071,101.804935 -0.410965158,81.8833759 3.16868995,69.354583 C38.083297,7.59256262 135.512171,2.59920314 179.518583,0.433252402 C422.987009,-5.8441138 658.427151,86.8767354 813.286144,213.47461 Z M374.661666,453.376351 C312.886675,454.271265 247.545,460.535662 190.257548,482.013592 C178.623669,486.488161 164.292079,499.016954 173.241217,514.243458 C196.508975,545.56544 229.789392,571.284484 260.968707,589.429185 C292.148021,607.547947 333.482662,630.608189 371.08201,635.990641 C380.031148,577.795306 380.031148,520.507854 379.136234,460.535662 C375.54361,458.745834 379.123265,455.166179 374.661666,453.376351 Z M2224.92832,371.913258 C2222.24358,449.783727 2149.71666,498.13501 2149.71666,576.005478 C2152.4014,578.69022 2154.21717,582.269875 2157.77088,580.505987 C2215.97919,516.941169 2273.25367,426.528938 2358.29642,399.681525 C2380.70817,397.891697 2400.95397,417.359314 2409.33244,431.911391 C2438.87757,490.98867 2431.74419,574.24159 2390.55222,627.949387 C2348.0503,680.671481 2274.16155,733.575152 2190.05263,724.613044 C2155.15099,810.550707 2130.93644,900.962938 2117.51273,994.954824 C2110.35342,1013.74801 2093.36303,996.744651 2082.62406,993.164996 C2010.12308,935.877545 2069.6543,784.222084 2074.56984,764.871195 C2079.48538,745.572185 2098.88815,700.04831 2113.07707,661.930171 C2079.05738,601.076034 2100.53531,527.654195 2128.27764,471.261657 C2149.75557,433.662309 2179.32663,396.06296 2214.22827,367.42572 C2218.66393,367.438689 2222.24358,368.333603 2224.92832,371.913258 Z M2369.07429,468.589886 C2358.33533,466.800058 2353.84779,481.131648 2344.91162,483.81639 C2303.74559,530.364876 2262.55361,576.913362 2241.95763,632.410986 C2269.72589,635.990641 2292.98068,618.092365 2317.16929,608.248314 C2358.33533,582.282845 2384.30079,539.339953 2381.61605,490.093756 C2379.81326,482.013592 2372.65395,475.749196 2369.07429,468.589886 Z" id="Shape"></path>
        </g>
    </g>
</svg>