<?xml version="1.0" encoding="UTF-8"?>
<svg width="29px" height="29px" viewBox="0 0 29 29" version="1.1" xmlns="http://www.w3.org/2000/svg" xmlns:xlink="http://www.w3.org/1999/xlink">
    <!-- Generator: Sketch 52.6 (67491) - http://www.bohemiancoding.com/sketch -->
    <title>Artboard Copy 7</title>
    <desc>Created with Sketch.</desc>
    <g id="Artboard-Copy-7" stroke="none" stroke-width="1" fill="none" fill-rule="evenodd">
        <g id="tuts_logo-cf1e6fd0e5ca6cc573eb3cd0c94e16d7" transform="translate(2.000000, 0.000000)" fill="#7AAC41">
            <path d="M21.438,0.892 C20.635,0.446 18.332,0.722 15.566,1.578 C10.725,4.887 6.639,9.762 6.354,17.59 C6.302,17.777 5.825,17.565 5.73,17.507 C4.423,15.001 3.905,12.363 4.997,8.557 C5.2,8.218 4.535,7.801 4.415,7.92 C4.176,8.16 3.177,9.224 2.514,10.375 C-0.774,16.079 1.376,23.388 7.129,26.586 C12.88,29.789 20.143,27.723 23.345,21.97 C27.05,15.33 23.61,2.106 21.438,0.892" id="Fill-1"></path>
        </g>
    </g>
</svg>