<?xml version="1.0" ?><!DOCTYPE svg  PUBLIC '-//W3C//DTD SVG 1.1//EN'  'http://www.w3.org/Graphics/SVG/1.1/DTD/svg11.dtd'><svg height="2048px" style="shape-rendering:geometricPrecision; text-rendering:geometricPrecision; image-rendering:optimizeQuality; fill-rule:evenodd; clip-rule:evenodd" viewBox="0 0 2048 2048" width="2048px" xml:space="preserve" xmlns="http://www.w3.org/2000/svg" xmlns:xlink="http://www.w3.org/1999/xlink"><defs><style type="text/css">
   <![CDATA[
    .fil2 {fill:none}
    .fil0 {fill:#D15600}
    .fil1 {fill:#FFFFFE}
   ]]>
  </style></defs><g id="Layer_x0020_1"><polygon class="fil0" points="1776,1760 1776,287.999 1776,271.999 1760,271.999 288,271.999 272,271.999 272,287.999 272,1760 272,1776 288,1776 1760,1776 1776,1776 "/><path class="fil1" d="M914.224 958.75l0 -355.576 253.081 0c23.8855,0 43.9359,0.87756 60.1252,2.60197 15.4748,1.64764 27.3874,3.98859 35.7118,6.99449l-0.00708662 0.0153543c10.6937,4.47284 19.9394,9.91536 27.7855,16.2933 7.71024,6.26693 14.1803,13.5354 19.4587,21.7701 5.3693,8.3752 10.6311,20.7484 15.8067,37.1362 5.4189,17.1567 10.5839,38.2996 15.5173,63.4524l2.53701 12.9378 13.1504 0 28.389 0 16.7847 0 -0.846851 -16.7504 -10.8614 -214.771 -0.77126 -15.2492 -15.1665 -0.0011811 -755.898 0 -16.0004 0 0 16.0004 0 26.9079 0 16.0004 16.0004 0 34.8083 0c18.6603,0 34.337,2.11654 47.0268,6.34489 11.6398,3.87992 20.8299,9.53741 27.5693,16.9665 4.30394,4.99961 7.77048,15.587 10.4055,31.787 2.94803,18.1311 4.40906,42.3992 4.40906,72.8221l0 637.156c0,23.4331 -0.659056,42.8079 -1.97362,58.1209 -1.22953,14.3079 -2.94213,24.6862 -5.13307,31.1268l-0.0401575 -0.0153543c-2.14134,5.77323 -5.09764,10.7717 -8.90788,14.9634 -3.90945,4.3004 -8.81221,7.92638 -14.7532,10.8484l-0.437008 0.250394c-9.14292,4.89804 -18.6614,8.62323 -28.5236,11.1437 -9.62481,2.46142 -19.5154,3.70512 -29.6421,3.70512l-34.8083 0 -16.0004 0 0 16.0004 0 26.661 0 16.0004 16.0004 0 755.898 0 11.4118 0 3.71339 -10.813 84.4264 -245.876 7.27442 -21.1878 -22.3996 0 -28.8827 0 -9.69922 0 -4.48819 8.6256c-15.5433,29.8654 -30.7028,55.6996 -45.4713,77.465 -14.6008,21.5185 -29.0988,39.4902 -43.487,53.8784l0.0295276 0.0295276c-10.7398,10.5 -21.6047,19.2071 -32.6422,26.1414 -10.8543,6.81851 -21.848,11.9173 -33.0307,15.3142l-0.187795 0c-11.5252,3.65079 -26.7768,6.34607 -45.6591,8.13898 -19.2591,1.82835 -42.7158,2.71418 -70.2449,2.71418l-166.386 0c-12.7795,0 -23.3788,-0.620079 -31.7339,-1.85551 -7.08426,-1.04764 -12.1725,-2.38465 -15.2138,-4.0063l0.0212599 -0.0354331c-3.40276,-2.00551 -6.23032,-4.26142 -8.5004,-6.78071 -2.12835,-2.36103 -3.80315,-4.95473 -5.03859,-7.79056l0.046063 -0.0177165c-1.2685,-3.2126 -2.33032,-10.5744 -3.16418,-22.0949 -0.915355,-12.6354 -1.3878,-29.7236 -1.3878,-51.2729l0 -307.392 199.512 0c19.8,0 36.7536,1.14213 50.8642,3.39922 13.5732,2.16969 24.652,5.35985 33.228,9.54095 8.49213,4.13977 15.7146,8.98111 21.6414,14.4957 5.77205,5.37284 10.4091,11.4449 13.8791,18.1854l0.0212599 -0.0106299c2.69764,5.63268 5.63741,15.5528 8.77324,29.7815l0.0625985 0c3.22205,14.6138 6.49371,33.5882 9.76064,56.9386l1.93228 13.813 13.8803 0 26.661 0 16.0004 0 0 -16.0004 0 -341.413 0 -16.0004 -16.0004 0 -26.661 0 -15.1358 0 -0.801969 15.1878c-1.3937,26.3693 -5.30079,48.613 -11.7768,66.7501 -6.07205,17.0102 -14.3291,30.1323 -24.815,39.3851l-0.0625985 0.0625985c-7.30512,6.53623 -18.9437,11.6032 -34.9335,15.1984 -17.3705,3.90355 -39.5327,5.85709 -66.5174,5.85709l-199.512 0z"/></g><rect class="fil2" height="2048" width="2048"/></svg>