<?xml version="1.0" standalone="no"?>
<!DOCTYPE svg PUBLIC "-//W3C//DTD SVG 20010904//EN"
 "http://www.w3.org/TR/2001/REC-SVG-20010904/DTD/svg10.dtd">
<svg version="1.0" xmlns="http://www.w3.org/2000/svg"
 width="64.000000pt" height="64.000000pt" viewBox="0 0 64.000000 64.000000"
 preserveAspectRatio="xMidYMid meet">

<g transform="translate(0.000000,64.000000) scale(0.100000,-0.100000)"
fill="#000000" stroke="none">
<path d="M255 576 c-179 -83 -222 -317 -84 -455 60 -61 119 -81 238 -81 l103
0 -14 22 c-14 20 -27 24 -106 29 -78 5 -98 10 -139 35 -29 18 -59 49 -78 78
-25 42 -30 59 -30 115 0 54 5 74 28 114 52 89 159 133 257 108 35 -9 53 -9 76
0 l29 11 -50 24 c-69 33 -161 33 -230 0z"/>
<path d="M282 489 c-66 -33 -97 -87 -97 -169 0 -83 31 -137 97 -169 47 -22
178 -31 178 -11 0 17 -38 30 -87 30 -88 0 -153 63 -153 150 0 88 64 150 157
150 52 0 77 15 52 31 -26 16 -103 10 -147 -12z"/>
</g>
</svg>
