<?xml version="1.0" encoding="UTF-8"?>
<svg width="39px" height="39px" viewBox="0 0 39 39" version="1.1" xmlns="http://www.w3.org/2000/svg" xmlns:xlink="http://www.w3.org/1999/xlink">
    <!-- Generator: Sketch 52.6 (67491) - http://www.bohemiancoding.com/sketch -->
    <title>Artboard Copy 6</title>
    <desc>Created with Sketch.</desc>
    <g id="Artboard-Copy-6" stroke="none" stroke-width="1" fill="none" fill-rule="evenodd">
        <g id="figma-ds-logo" transform="translate(0.000000, 7.000000)" fill="#000000" fill-rule="nonzero">
            <path d="M8.182,24 C15.272,24 19.477,19.614 19.477,12.341 C19.477,5.091 15.273,0.727 8.341,0.727 L0.295,0.727 L0.295,24 L8.182,24 Z M4.512,20.352 L4.512,4.375 L8.102,4.375 C12.829,4.375 15.295,7.011 15.295,12.341 C15.295,17.693 12.829,20.352 7.977,20.352 L4.511,20.352 L4.512,20.352 Z M34.53,7.125 L38.587,7.125 C38.508,3.193 35.157,0.41 30.201,0.41 C25.315,0.41 21.644,3.16 21.656,7.274 C21.656,10.614 24.031,12.535 27.86,13.524 L30.508,14.206 C33.019,14.842 34.678,15.626 34.69,17.433 C34.678,19.422 32.792,20.751 30.042,20.751 C27.406,20.751 25.36,19.569 25.19,17.126 L21.042,17.126 C21.212,21.751 24.656,24.353 30.076,24.353 C35.656,24.353 38.894,21.569 38.906,17.467 C38.894,13.433 35.565,11.592 32.065,10.762 L29.883,10.217 C27.973,9.762 25.906,8.956 25.928,7.012 C25.94,5.262 27.508,3.978 30.144,3.978 C32.656,3.978 34.314,5.148 34.531,7.126 L34.53,7.125 Z" id="Shape"></path>
        </g>
    </g>
</svg>