<?xml version="1.0" encoding="UTF-8"?>
<svg width="32px" height="32px" viewBox="0 0 32 32" version="1.1" xmlns="http://www.w3.org/2000/svg" xmlns:xlink="http://www.w3.org/1999/xlink">
    <!-- Generator: Sketch 52.6 (67491) - http://www.bohemiancoding.com/sketch -->
    <title>flawless-logo</title>
    <desc>Created with Sketch.</desc>
    <g id="Page-1" stroke="none" stroke-width="1" fill="none" fill-rule="evenodd">
        <g id="flawless-logo">
            <path d="M0,15.926087 C0,24.721913 7.13043478,31.8521739 15.926087,31.8521739 C24.721913,31.8521739 31.8523478,24.721913 31.8523478,15.926087 C31.8523478,7.13026087 24.721913,0 15.926087,0 C7.13043478,0 0,7.13026087 0,15.926087" id="Fill-16" fill="#3D7DD0"></path>
            <path d="M9.71881739,25.7170783 L9.71881739,13.0699478 C9.71881739,10.583513 11.7344696,8.56786087 14.2209043,8.56786087 L23.2252522,8.56786087 C23.2252522,11.0544696 21.2096,13.0701217 18.7231652,13.0701217 L14.751513,13.0701217 C14.4584696,13.0701217 14.2209043,13.307687 14.2209043,13.6007304 L14.2209043,17.0416 C14.2209043,17.3346435 14.4584696,17.5722087 14.751513,17.5722087 L18.7229913,17.5722087 C18.7229913,20.0586435 16.7073391,22.0742957 14.2209043,22.0742957 L14.2209043,25.7170783 C14.2209043,26.191687 13.8362087,26.5763826 13.3616,26.5763826 L10.5781217,26.5763826 C10.103513,26.5763826 9.71881739,26.191687 9.71881739,25.7170783" id="Fill-18" fill="#FEFEFE"></path>
            <path d="M14.2209391,17.0415304 C14.2209391,17.3345739 14.4585043,17.5721391 14.7515478,17.5721391 L16.8325913,17.5721391 C17.2965913,16.6453565 17.5706783,15.6279652 17.5706783,14.6477913 L14.2209391,16.0024 L14.2209391,17.0415304 Z" id="Fill-20" fill="#FEFEFE" opacity="0.5"></path>
            <path d="M14.2209043,8.56791304 L19.6963826,8.56791304 C20.7791652,7.32843478 21.4965565,5.64356522 21.4965565,4.05573913 L13.6447304,7.23121739 C12.0426435,7.87904348 10.6657739,9.53695652 10.0553391,11.3613043 C10.7283826,9.72252174 12.3393391,8.56791304 14.2209043,8.56791304" id="Fill-22" fill="#FEFEFE" opacity="0.5"></path>
            <path d="M14.2209043,8.56791304 L21.851513,8.56791304 C22.1763826,7.86843478 22.3609043,7.10217391 22.3609043,6.3246087 L22.3609043,6.32443478 L13.9327304,7.91226087 C12.2523826,8.22878261 10.8021217,9.55295652 10.1256,11.2006087 C10.835687,9.64756522 12.4016,8.56791304 14.2209043,8.56791304" id="Fill-25" fill="#FEFEFE" opacity="0.5"></path>
            <path d="M14.2209391,16.8116348 L14.2209391,17.0415478 C14.2209391,17.3345913 14.4585043,17.5721565 14.7515478,17.5721565 L17.9350261,17.5721565 C18.0717217,17.1027652 18.1468522,16.615113 18.1468522,16.1225913 L14.4294609,16.8229391 C14.3546783,16.8370261 14.2845913,16.831287 14.2209391,16.8116348" id="Fill-27" fill="#FEFEFE" opacity="0.5"></path>
        </g>
    </g>
</svg>