<svg xmlns="http://www.w3.org/2000/svg" width="65" height="65" viewBox="0 0 65 65">
  <path fill="#11872E" fill-rule="evenodd" d="M32.377,22 C32.455,22 32.551,22.05 32.656,22.154 L42.517,32.021 C42.786,32.284 43,32.81 43,33.184 L43,42.65 C43,43.03 42.694,43.335 42.32,43.335 L22.021,43.335 C21.8387246,43.3344653 21.6637751,43.4067058 21.5349802,43.5356884 C21.4061854,43.664671 21.3341998,43.8397256 21.335,44.022 L21.335,64.318 C21.335,64.694 21.024,65 20.651,65 L11.183,65 C10.808,65 10.283,64.785 10.017,64.517 L0.154,54.649 C-0.114,54.387 -0.023,54.167 0.354,54.167 L9.818,54.167 C10.198,54.167 10.504,53.861 10.504,53.482 L10.504,33.184 C10.504,32.81 10.809,32.504 11.184,32.504 L31.484,32.504 C31.8630702,32.5029187 32.1707148,32.1970575 32.174,31.818 L32.174,22.353 C32.174,22.123 32.254,22 32.377,22 L11.67,22 C11.301,22 11,21.68 11,21.293 L11,11.533 C11,11.147 11.301,10.831 11.67,10.831 L31.66,10.831 C32.032,10.831 32.338,10.511 32.338,10.123 L32.338,0.363 C32.338,-0.024 32.55,-0.117 32.814,0.159 L42.525,10.329 C42.789,10.604 43,11.147 43,11.532 L43,21.293 C43,21.68 42.7,22 42.33,22 L32.377,22 Z" transform="translate(11)"/>
</svg>
