<?xml version="1.0" encoding="UTF-8"?>
<svg width="150px" height="150px" viewBox="0 0 150 150" version="1.1" xmlns="http://www.w3.org/2000/svg" xmlns:xlink="http://www.w3.org/1999/xlink">
    <!-- Generator: Sketch 52.6 (67491) - http://www.bohemiancoding.com/sketch -->
    <title>fossil-logo</title>
    <desc>Created with Sketch.</desc>
    <g id="fossil-logo" stroke="none" stroke-width="1" fill="none" fill-rule="evenodd">
        <g transform="translate(0.000000, 38.000000)" fill="#231F20" fill-rule="nonzero" id="Shape">
            <path d="M146.779,33.691 L77.795,1.464 C75.852,0.562 73.484,0.56 71.533,1.464 L2.553,33.691 C1.131,34.353 0.213,35.781 0.213,37.328 C0.213,38.873 1.131,40.299 2.551,40.961 L71.535,73.189 C72.506,73.642 73.588,73.88 74.664,73.88 C75.742,73.88 76.826,73.642 77.799,73.189 L146.778,40.961 C148.202,40.301 149.122,38.873 149.122,37.328 C149.121,35.779 148.201,34.353 146.779,33.691 Z M145.799,38.865 L76.818,71.09 C75.488,71.711 73.847,71.711 72.513,71.09 L3.531,38.865 C2.922,38.58 2.527,37.976 2.527,37.328 C2.527,36.676 2.922,36.072 3.531,35.789 L72.511,3.564 C73.179,3.253 73.923,3.089 74.663,3.089 C75.405,3.089 76.151,3.253 76.817,3.562 L145.799,35.789 C146.408,36.072 146.805,36.676 146.805,37.328 C146.807,37.986 146.422,38.574 145.799,38.865 Z M74.482,35.824 C71.593,34.895 70.353,34.082 70.57,32.744 C70.769,31.413 72.211,31.492 73.605,31.601 C74.988,31.723 76.113,32.027 76.935,32.299 C76.956,32.305 76.99,32.294 77.001,32.248 C77.089,31.753 77.349,30.467 77.419,30.022 C77.423,29.976 77.38,29.944 77.353,29.936 C75.748,29.505 74.273,29.218 72.544,29.218 C72.464,29.218 72.382,29.225 72.294,29.225 C68.849,29.287 67.255,30.673 67.046,33.566 C66.937,35.262 68.108,37.122 70.54,37.931 C72.968,38.74 74.704,39.195 74.46,40.694 C74.237,41.964 72.741,42.108 71.112,42.013 C69.684,41.931 68.491,41.586 67.592,41.316 C67.533,41.295 67.488,41.33 67.477,41.386 C67.407,41.907 67.219,43.24 67.151,43.706 C67.151,43.769 67.198,43.828 67.231,43.828 C68.348,44.099 70.352,44.475 72.776,44.475 C76.083,44.475 77.786,43.059 77.987,40.349 C78.145,38.233 77.148,36.68 74.482,35.824 Z M57.512,29.235 C53.016,29.235 50.567,32.185 50.567,36.925 C50.567,41.676 53.016,44.626 57.512,44.626 C61.989,44.626 64.45,41.676 64.45,36.925 C64.449,32.115 62.059,29.235 57.512,29.235 Z M57.512,42.195 C54.463,42.195 54.037,39.667 54.037,36.925 C54.037,34.206 54.463,31.674 57.512,31.674 C60.555,31.674 60.969,34.207 60.969,36.925 C60.969,39.667 60.555,42.195 57.512,42.195 Z M37.916,29.561 C37.859,29.561 37.82,29.603 37.82,29.653 L37.82,44.126 C37.82,44.181 37.859,44.218 37.916,44.218 L41.238,44.218 C41.287,44.218 41.33,44.181 41.33,44.126 L41.33,38.709 C41.33,38.667 41.373,38.62 41.426,38.62 L47.178,38.62 C47.233,38.62 47.28,38.576 47.28,38.521 L47.28,36.28 C47.28,36.227 47.233,36.184 47.178,36.184 L41.426,36.184 C41.373,36.184 41.33,36.142 41.33,36.083 L41.33,32.085 C41.33,32.03 41.373,31.987 41.426,31.987 L47.985,31.987 C48.034,31.987 48.077,31.945 48.077,31.892 L48.077,29.651 C48.069,29.601 47.946,29.559 47.901,29.559 L37.916,29.559 L37.916,29.561 Z M112.654,41.747 L106.994,41.747 C106.939,41.747 106.9,41.703 106.9,41.645 L106.896,29.664 C106.896,29.602 106.859,29.565 106.798,29.565 L103.384,29.565 C103.337,29.565 103.286,29.602 103.286,29.664 L103.286,44.125 C103.286,44.178 103.337,44.217 103.384,44.217 L112.546,44.217 C112.601,44.217 112.761,44.178 112.765,44.125 L112.765,41.848 C112.766,41.797 112.705,41.747 112.654,41.747 Z M99.004,29.541 L95.582,29.541 C95.52,29.541 95.486,29.585 95.486,29.641 L95.486,44.126 C95.486,44.179 95.519,44.218 95.582,44.218 L99.004,44.218 C99.057,44.218 99.098,44.179 99.098,44.126 L99.098,29.641 C99.098,29.585 99.057,29.541 99.004,29.541 Z M88.158,35.824 C85.283,34.895 84.027,34.082 84.238,32.744 C84.445,31.413 85.888,31.492 87.287,31.601 C88.672,31.723 89.801,32.027 90.621,32.299 C90.637,32.305 90.683,32.294 90.693,32.248 C90.767,31.753 91.025,30.467 91.103,30.022 C91.111,29.976 91.062,29.944 91.035,29.936 C89.428,29.505 87.957,29.218 86.23,29.218 C86.14,29.218 86.058,29.225 85.968,29.225 C82.523,29.287 80.929,30.673 80.728,33.566 C80.621,35.262 81.785,37.122 84.214,37.931 C86.655,38.74 88.388,39.195 88.134,40.694 C87.915,41.964 86.417,42.108 84.792,42.013 C83.372,41.931 82.171,41.586 81.269,41.316 C81.207,41.295 81.164,41.33 81.148,41.386 C81.084,41.907 80.894,43.24 80.832,43.706 C80.832,43.769 80.885,43.828 80.902,43.828 C82.033,44.099 84.013,44.475 86.459,44.475 C89.762,44.475 91.48,43.059 91.674,40.349 C91.826,38.233 90.834,36.68 88.158,35.824 Z"></path>
        </g>
    </g>
</svg>