<?xml version="1.0" encoding="UTF-8"?>
<svg width="284px" height="284px" viewBox="0 0 284 284" version="1.1" xmlns="http://www.w3.org/2000/svg" xmlns:xlink="http://www.w3.org/1999/xlink">
    <!-- Generator: Sketch 52.6 (67491) - http://www.bohemiancoding.com/sketch -->
    <title>Artboard Copy 3</title>
    <desc>Created with Sketch.</desc>
    <g id="Artboard-Copy-3" stroke="none" stroke-width="1" fill="none" fill-rule="evenodd">
        <g id="helpscout-icon" transform="translate(24.000000, 0.000000)" fill="#3197D6" fill-rule="nonzero">
            <path d="M17.0360934,166.2 L100.312527,83.1 C111.08535,72.45 117.799575,57.65 117.799575,41.35 C117.799575,25.25 111.285775,10.65 100.763482,0 L17.4870488,83.1 C6.6641189,93.75 0,108.5 0,124.85 C0,140.95 6.51380042,155.55 17.0360934,166.2 Z M218.563057,117.45 L135.286624,200.55 C124.5138,211.2 117.799575,226 117.799575,242.3 C117.799575,258.4 124.313376,273 134.835669,283.65 L218.112102,200.55 C228.884926,189.9 235.599151,175.1 235.599151,158.8 C235.599151,142.7 229.08535,128.1 218.563057,117.45 Z M218.061996,83.1 C228.83482,72.45 235.498938,57.7 235.498938,41.35 C235.498938,25.25 228.985138,10.65 218.462845,0.05 L17.4870488,200.6 C6.71422505,211.25 0,226.05 0,242.35 C0,258.45 6.51380042,273.05 17.0360934,283.65 L218.061996,83.1 Z" id="Shape"></path>
        </g>
    </g>
</svg>