<svg xmlns="http://www.w3.org/2000/svg" width="30" height="30" viewBox="0 0 30 30">
  <path fill="#FF7A59" d="M21.7272479,9.93116289 L21.7272479,6.40410631 C22.6786722,5.95954929 23.2885416,5.00631986 23.2934203,3.95616972 L23.2934203,3.87469254 C23.2934203,2.37473908 22.0774678,1.15878655 20.5775143,1.15878655 L20.4960372,1.15878655 C18.9960837,1.15878655 17.7801312,2.37473908 17.7801312,3.87469254 L17.7801312,3.95616972 C17.7850099,5.00631986 18.3948793,5.95954929 19.3463036,6.40410631 L19.3463036,9.93116289 C18.0066452,10.1361134 16.7449232,10.691396 15.6888836,11.5407898 L6.01663706,4.00686663 C6.08508739,3.75842596 6.12159361,3.50227399 6.1252733,3.24460235 C6.12746968,2.00681775 5.38372999,0.889624027 4.24093656,0.41408357 C3.09814314,-0.0614568879 1.78141213,0.198331501 0.904870704,1.07228268 C0.0283292732,1.94623386 -0.235354776,3.26219026 0.236801561,4.40638602 C0.708957897,5.55058178 1.82394567,6.2976245 3.06173135,6.29909128 C3.59100927,6.29672539 4.11041782,6.15563605 4.56815387,5.88989478 L14.0937415,13.3006969 C12.3421255,15.9462501 12.3888198,19.3944439 14.2114307,21.9915961 L11.3144643,24.8885624 C11.0801945,24.8137514 10.8361266,24.7740904 10.5902227,24.7708732 C9.2027377,24.7718732 8.0785824,25.8971093 8.07891573,27.2845946 C8.07924906,28.67208 9.20394489,29.7967758 10.5914302,29.7971091 C11.9789156,29.7974425 13.1041517,28.6732872 13.1051517,27.2858021 C13.1020414,27.0398889 13.0623779,26.7958054 12.9874624,26.5615605 L15.8536485,23.6953744 C18.4144346,25.6659807 21.9309335,25.8352643 24.6691686,24.1197518 C27.4074037,22.4042394 28.789185,19.1661687 28.1331596,16.0022241 C27.4771343,12.8382796 24.9218248,10.4165416 21.7272479,9.93116289 M20.5394917,21.529892 C18.3502679,21.5278925 16.5768915,19.7520851 16.577891,17.5628606 C16.5788905,15.3736361 18.3538876,13.5994488 20.5431123,13.5994482 C22.732337,13.5994477 24.5073351,15.3736342 24.5083356,17.5628587 C24.5083356,19.7527908 22.7330449,21.5280814 20.5431129,21.5280814" transform="translate(.079)"/>
</svg>
