<?xml version="1.0" encoding="UTF-8"?>
<svg width="250px" height="250px" viewBox="0 0 250 250" version="1.1" xmlns="http://www.w3.org/2000/svg" xmlns:xlink="http://www.w3.org/1999/xlink">
    <!-- Generator: Sketch 52.6 (67491) - http://www.bohemiancoding.com/sketch -->
    <title>impact-logo-highres-white</title>
    <desc>Created with Sketch.</desc>
    <g id="Page-1" stroke="none" stroke-width="1" fill="none" fill-rule="evenodd">
        <g id="impact-logo-highres-white" fill="#FFFFFF" fill-rule="nonzero">
            <path d="M0,0.200803213 L0,249.899598 L249.598394,249.899598 L249.598394,0.200803213 C249.598394,0.200803213 0,0.200803213 0,0.200803213 Z M45.4819277,18.6746988 C53.313253,18.6746988 59.7389558,25 59.7389558,32.9317269 C59.7389558,40.8634538 53.313253,47.188755 45.4819277,47.188755 C37.6506024,47.188755 31.2248996,40.8634538 31.2248996,32.9317269 C31.2248996,25.1004016 37.6506024,18.6746988 45.4819277,18.6746988 Z M32.7309237,57.2289157 L58.2329317,57.2289157 L58.2329317,176.004016 L32.7309237,176.004016 L32.7309237,57.2289157 Z M125.200803,235.341365 L39.2570281,193.373494 L211.144578,193.373494 L125.200803,235.341365 Z M217.46988,176.405622 L189.056225,176.405622 L189.056225,81.2248996 L149.096386,122.690763 L109.136546,81.2248996 L109.136546,176.405622 L80.5220884,176.405622 L80.5220884,19.0763052 L148.995984,88.253012 L217.46988,19.0763052 L217.46988,176.405622 Z" id="Shape"></path>
        </g>
    </g>
</svg>