<?xml version="1.0" encoding="UTF-8"?>
<svg width="149px" height="149px" viewBox="0 0 149 149" version="1.1" xmlns="http://www.w3.org/2000/svg" xmlns:xlink="http://www.w3.org/1999/xlink">
    <!-- Generator: Sketch 52.6 (67491) - http://www.bohemiancoding.com/sketch -->
    <title>IMPACT-logo--Black</title>
    <desc>Created with Sketch.</desc>
    <g id="Page-1" stroke="none" stroke-width="1" fill="none" fill-rule="evenodd">
        <g id="IMPACT-logo--Black" fill="#000000" fill-rule="nonzero">
            <path d="M0,0 L0,149 L149,149 L149,0 L0,0 Z M27.1,11.1 C31.8,11.1 35.6,14.9 35.6,19.6 C35.6,24.3 31.8,28.1 27.1,28.1 C22.4,28.1 18.6,24.3 18.6,19.6 C18.6,14.9 22.4,11.1 27.1,11.1 Z M19.5,34.1 L34.7,34.1 L34.7,105 L19.5,105 L19.5,34.1 Z M74.8,140.4 L23.5,115.3 L126.1,115.3 L74.8,140.4 Z M129.8,105.2 L112.8,105.2 L112.8,48.4 L88.9,73.1 L65.1,48.4 L65.1,105.2 L48.1,105.2 L48.1,11.3 L88.9,52.6 L129.7,11.3 L129.7,105.2 L129.8,105.2 Z" id="Shape"></path>
        </g>
    </g>
</svg>