<?xml version="1.0" encoding="UTF-8"?>
<svg width="32px" height="32px" viewBox="0 0 32 32" version="1.1" xmlns="http://www.w3.org/2000/svg" xmlns:xlink="http://www.w3.org/1999/xlink">
    <!-- Generator: Sketch 52.5 (67469) - http://www.bohemiancoding.com/sketch -->
    <title>Intercom_Logo_Mark_Color</title>
    <desc>Created with Sketch.</desc>
    <g id="Page-1" stroke="none" stroke-width="1" fill="none" fill-rule="evenodd">
        <g id="Intercom_Logo_Mark_Color" fill="#286EFA">
            <path d="M28,0 L4,0 C1.791,0 0,1.791 0,4 L0,28 C0,30.209 1.791,32 4,32 L28,32 C30.209,32 32,30.209 32,28 L32,4 C32,1.791 30.209,0 28,0 Z M20.266,5.867 C20.266,5.278 20.744,4.8 21.333,4.8 C21.922,4.8 22.4,5.278 22.4,5.867 L22.4,20.118 C22.4,20.707 21.922,21.185 21.333,21.185 C20.744,21.185 20.266,20.707 20.266,20.118 L20.266,5.867 Z M14.933,5.327 C14.933,4.738 15.411,4.26 16,4.26 C16.589,4.26 17.067,4.738 17.067,5.327 L17.067,20.794 C17.067,21.383 16.589,21.861 16,21.861 C15.411,21.861 14.933,21.383 14.933,20.794 L14.933,5.327 Z M9.6,5.867 C9.6,5.278 10.078,4.8 10.667,4.8 C11.256,4.8 11.733,5.278 11.733,5.867 L11.733,20.118 C11.733,20.707 11.256,21.185 10.667,21.185 C10.078,21.185 9.6,20.707 9.6,20.118 L9.6,5.867 Z M4.267,8 C4.267,7.411 4.744,6.933 5.333,6.933 C5.922,6.933 6.4,7.411 6.4,8 L6.4,17.594 C6.4,18.183 5.922,18.661 5.333,18.661 C4.744,18.661 4.267,18.183 4.267,17.594 L4.267,8 Z M27.361,24.27 C27.197,24.412 23.245,27.727 16,27.727 C8.755,27.727 4.805,24.412 4.639,24.27 C4.192,23.887 4.139,23.214 4.523,22.766 C4.905,22.32 5.577,22.267 6.024,22.649 C6.086,22.701 9.615,25.594 15.999,25.594 C22.463,25.594 25.937,22.68 25.971,22.651 C26.417,22.267 27.092,22.319 27.474,22.766 C27.859,23.214 27.808,23.887 27.361,24.27 Z M27.733,17.594 C27.733,18.183 27.255,18.661 26.666,18.661 C26.077,18.661 25.6,18.183 25.6,17.594 L25.6,8 C25.6,7.411 26.077,6.933 26.666,6.933 C27.255,6.933 27.733,7.411 27.733,8 L27.733,17.594 Z" id="SVGID_7_"></path>
        </g>
    </g>
</svg>