<?xml version="1.0" encoding="UTF-8"?>
<svg width="292px" height="292px" viewBox="0 0 292 292" version="1.1" xmlns="http://www.w3.org/2000/svg" xmlns:xlink="http://www.w3.org/1999/xlink">
    <!-- Generator: Sketch 52.6 (67491) - http://www.bohemiancoding.com/sketch -->
    <title>bdrk7lgh-kickstarter-logo-k-white</title>
    <desc>Created with Sketch.</desc>
    <defs>
        <path d="M64,96.5101452 C64.9603697,73.3649093 83.7944873,54.7817026 107.162212,54 L110.235503,54 C124.878018,54.4877409 137.640016,61.906316 145.484176,73.0856148 L151.615754,67.0009308 C169.060217,49.6891886 197.472189,49.6891886 214.916652,67.0009308 C232.361116,84.3120329 232.361116,112.507069 214.916652,129.818812 L198.07644,146.530087 L214.916652,163.155582 C232.361116,180.467324 232.361116,208.662361 214.916652,225.974103 C197.472189,243.285205 169.060217,243.285205 151.615754,225.974103 L145.484176,219.889419 C137.366195,231.458321 123.981043,239 108.695351,239 C84.6233681,239 64.9812863,220.114188 64,196.464295 L64.0000003,96.5101372 L64,96.5101452 Z" id="path-1"></path>
    </defs>
    <g id="bdrk7lgh-kickstarter-logo-k-white" stroke="none" stroke-width="1" fill="none" fill-rule="evenodd">
        <rect fill="#282828" x="0" y="0" width="292" height="292"></rect>
        <mask id="mask-2" fill="white">
            <use xlink:href="#path-1"></use>
        </mask>
        <use id="Clip-2" fill="#FFFFFF" xlink:href="#path-1"></use>
    </g>
</svg>