<svg width="49" height="49" viewBox="0 0 49 49" fill="none" xmlns="http://www.w3.org/2000/svg">
<path d="M24.5 47C36.9264 47 47 36.9264 47 24.5C47 12.0736 36.9264 2 24.5 2C12.0736 2 2 12.0736 2 24.5C2 36.9264 12.0736 47 24.5 47Z" fill="white" stroke="black" stroke-width="2"/>
<path d="M32.1228 25.2548C31.8659 25.0594 31.6088 24.8638 31.3528 24.6676C31.2098 24.5568 31.066 24.4487 30.923 24.3367C30.772 24.2184 30.6236 24.0734 30.4558 24.2347C30.3513 24.3346 30.2712 24.4546 30.1866 24.5687C30.0332 24.775 29.8791 24.9812 29.7328 25.1929C29.6321 25.3351 29.5025 25.4869 29.4416 25.6516C29.3742 25.8366 29.1479 26.0981 28.93 26.2502L30.9411 27.7359C30.9457 27.6972 30.9514 27.6585 30.9571 27.6254C30.9953 27.3513 31.2857 26.8802 31.4276 26.7243C31.5675 26.5666 31.8541 26.387 31.9984 26.3198C32.1427 26.2551 32.3445 25.968 32.4034 25.793C32.4632 25.6195 32.4147 25.4856 32.2846 25.3792C32.2333 25.3379 32.1772 25.2966 32.1228 25.2548Z" fill="black"/>
<path d="M31.3306 28.3028L28.3673 26.1154L28.1634 26.1851L27.7197 26.7948C27.6208 26.8002 27.5207 26.8446 27.4285 26.9693C27.3201 27.1169 25.3498 29.7563 25.2014 30.024C25.1299 30.1528 25.125 30.2439 25.1536 30.3244L24.6296 31.0451L24.7824 31.416L27.4125 33.3603L27.7984 33.3881L28.2979 32.6971C28.4226 32.7162 28.5325 32.6791 28.5994 32.5706C28.7042 32.3946 30.6014 29.9088 30.8014 29.6156C30.9434 29.4081 30.9537 29.2385 30.9104 29.1048L31.3469 28.5031L31.3306 28.3028Z" fill="black"/>
<path d="M33.9346 21.5577C33.6968 20.1604 32.8104 18.5668 31.2307 17.2534C29.6259 15.9168 27.1182 14.7491 25.0599 14.4494C23.0006 14.1518 19.5549 14.7018 18.3577 19.5662C17.1597 24.4316 15.979 30.8755 15.9997 32.5905C16.0211 34.306 16.8063 36.1581 18.9715 37.1805C19.0177 37.202 19.0683 37.2187 19.1145 37.2386C19.4929 37.3912 19.8773 37.5215 20.2815 37.578C20.6498 37.6273 21.0241 37.6232 21.3948 37.5897C21.7273 37.5602 22.0551 37.4988 22.3744 37.4004C22.648 37.3148 22.9206 37.2167 23.1821 37.1023C23.5148 36.956 23.8509 36.7683 24.1505 36.5667C24.243 36.5058 24.3312 36.4392 24.4146 36.3674C24.4551 36.3357 24.4936 36.3003 24.53 36.2634C24.5545 36.2368 24.5904 36.1922 24.5785 36.1514C24.5602 36.0997 24.4404 36.083 24.3942 36.061C24.3155 36.0241 24.23 35.9756 24.1358 35.9116C24.1242 35.9062 22.9879 35.1442 22.8522 34.9384C22.7672 34.8114 22.7327 34.6625 22.7528 34.512C22.7626 34.4377 22.7845 34.3672 22.8132 34.297C22.8258 34.2619 22.9229 34.0657 22.7977 34.1457C22.7489 34.1767 22.7006 34.2079 22.6542 34.2397C22.466 34.3589 22.2876 34.496 22.0964 34.614C21.7316 34.8375 21.2557 34.9273 20.8331 34.9098C20.5471 34.8974 20.2639 34.8274 20.0045 34.7056C18.9955 34.2286 18.5977 33.0763 18.7118 32.12C18.8269 31.1651 20.6971 21.5022 21.1919 19.6924C21.6862 17.8848 22.9115 16.7124 25.1392 17.2715C27.3673 17.829 28.8007 18.5964 30.0746 19.9371C30.3105 20.1873 30.5366 20.4439 30.7323 20.7244C31.0066 21.1194 31.2446 21.5244 31.3531 21.997C31.4388 22.361 31.4496 22.7391 31.3595 23.1031C31.3221 23.2536 31.2875 23.404 31.2348 23.5501C31.1884 23.6769 31.0967 23.807 31.0812 23.9417C31.0748 24.0274 31.1512 24.054 31.2095 24.0997C31.6427 24.4291 32.0748 24.7595 32.5056 25.0883C32.51 25.0917 32.5126 25.0943 32.5159 25.0963C32.645 25.2029 32.7343 25.3405 32.7756 25.5018C32.8035 25.6095 32.8507 25.6242 32.9578 25.5839C33.3874 25.4213 33.6124 24.9445 33.7265 24.5303C33.8574 24.0558 33.9377 23.5651 33.9743 23.0747C34.0102 22.5706 34.018 22.0597 33.9346 21.5577Z" fill="black"/>
<path d="M24.5062 32.2544C24.4012 32.4284 24.476 32.5092 24.3632 32.7015C24.2489 32.8943 23.4626 33.8933 23.2703 34.2061C23.078 34.519 23.0884 34.6377 23.1565 34.735C23.221 34.8336 24.0976 35.4493 24.3374 35.6059C24.577 35.7655 24.7313 35.8155 24.8405 35.7779C24.95 35.7389 25.7659 34.5768 25.8996 34.4369C26.0338 34.298 26.3229 33.8749 26.5026 33.8236C26.6838 33.775 26.7468 33.7379 26.8348 33.6457C26.8689 33.6086 26.9494 33.4885 27.0354 33.3553L24.8653 31.7524C24.728 31.9369 24.5636 32.1594 24.5062 32.2544ZM24.7577 34.6695C24.6885 34.8685 24.4735 34.9753 24.275 34.9069C24.076 34.8393 23.9709 34.624 24.038 34.4247C24.1056 34.2263 24.3214 34.1207 24.5204 34.1888C24.7182 34.2559 24.8235 34.471 24.7577 34.6695Z" fill="black"/>
</svg>
