<?xml version="1.0" encoding="UTF-8"?>
<svg width="38px" height="38px" viewBox="0 0 38 38" version="1.1" xmlns="http://www.w3.org/2000/svg" xmlns:xlink="http://www.w3.org/1999/xlink">
    <!-- Generator: Sketch 52.6 (67491) - http://www.bohemiancoding.com/sketch -->
    <title>Artboard Copy 5</title>
    <desc>Created with Sketch.</desc>
    <g id="Artboard-Copy-5" stroke="none" stroke-width="1" fill="none" fill-rule="evenodd">
        <g id="motocms-logo">
            <polygon id="Path" fill="#FF9000" points="9.58750659 29.57301 9.58750659 14.7272008 0.0460991038 22.1599895"></polygon>
            <polygon id="Path" fill="#FFC600" points="9.59406958 14.8919083 9.59406958 0.0197680548 0.0460991038 7.41302056"></polygon>
            <polygon id="Path" fill="#FF7200" points="19.0564048 22.2390617 19.0564048 7.35371639 9.50843437 14.8062731"></polygon>
            <polygon id="Path" fill="#FFA800" points="0.0725092251 22.2192936 0.0725092251 7.37348445 9.59406958 14.8062731"></polygon>
            <polygon id="Path" fill="#FF9C00" points="9.56117554 14.9051133 9.56117554 0.0197680548 19.0827359 7.42622562"></polygon>
            <polygon id="Path" fill="#FF8A00" points="28.5385082 29.57301 28.5385082 14.7074328 38.0337375 22.1599895"></polygon>
            <polygon id="Path" fill="#FFE748" points="28.5450712 14.8260411 28.5450712 0 38.0337375 7.29441223"></polygon>
            <polygon id="Path" fill="#FF9600" points="19.0564048 22.2192936 19.0564048 7.37348445 28.5846073 14.8062731"></polygon>
            <polygon id="Path" fill="#BC1B00" points="19.0564048 37.0057986 19.0564048 22.1402214 9.56773853 29.57301"></polygon>
            <polygon id="Path" fill="#E12D1A" points="28.5450712 29.6520822 28.5450712 14.7469689 19.0168687 22.1995256"></polygon>
            <polygon id="Path" fill="#B1150A" points="19.0564048 37.0057986 19.0564048 22.1599895 28.5648392 29.5927781"></polygon>
            <polygon id="Path" fill="#DD2A00" points="9.56117554 29.6520822 9.56117554 14.786505 19.095941 22.1863205"></polygon>
            <polygon id="Path" fill="#FFC600" points="38.0337375 22.1929626 38.0337375 7.25487612 28.512098 14.779942"></polygon>
            <polygon id="Path" fill="#FFCE25" points="28.5516342 14.8853453 28.5516342 0.0197680548 19.0366368 7.41302056"></polygon>
        </g>
    </g>
</svg>