<svg xmlns="http://www.w3.org/2000/svg" width="30" height="30" viewBox="0 0 30 30">
  <g fill="#2C98E3" fill-rule="evenodd" transform="translate(.5)">
    <path d="M19.7077513 6.41117003C19.921012 6.29484288 20.1674942 6.14709085 20.3887923 6.02800712L15.4023505.897483313C14.5680619.0396394436 13.2043724.0396394436 12.3711554.897483313L.625743261 12.9828274C-.208545365 13.8406713-.208545365 15.2437643.625743261 16.1010568L4.54159508 20.1306075C4.74306748 19.865977 5.00026628 19.5478691 5.16423052 19.3251384 5.33998304 19.0886249 5.54734958 18.8201352 5.72524542 18.5874809 8.18524483 15.3600914 10.9083372 12.5544568 14.06063 10.0443263 15.8749533 8.59988479 17.6946348 7.50332216 19.7077513 6.41117003M27.5264879 13.3726061L21.7855962 7.46528152C21.6264544 7.60421253 21.4474869 7.76685003 21.2851302 7.91405074L21.4137296 7.77677367C20.9630958 8.18254044 20.5188921 8.60264136 20.0875482 9.03101198 17.2176382 11.8846109 14.8090786 15.25038 12.9379573 18.8576245 11.956851 20.7502839 10.9800314 22.5999408 10.4104432 24.7462045L10.3863308 24.7710136C10.3252461 24.8327607 10.3525734 24.8867894 10.3214952 24.9794101 10.2475506 25.1949737 10.1039479 25.4777975 9.98820846 25.7347096L12.7498806 28.5756283C13.5836334 29.4340235 14.9467871 29.4340235 15.7810757 28.5756283L27.5264879 16.4908355C28.3602407 15.6335429 28.3602407 14.23045 27.5264879 13.3726061"/>
  </g>
</svg>
