<?xml version="1.0" encoding="UTF-8"?>
<svg width="296px" height="296px" viewBox="0 0 296 296" version="1.1" xmlns="http://www.w3.org/2000/svg" xmlns:xlink="http://www.w3.org/1999/xlink">
    <!-- Generator: Sketch 52.6 (67491) - http://www.bohemiancoding.com/sketch -->
    <title>pulsar-brand</title>
    <desc>Created with Sketch.</desc>
    <g id="Page-1" stroke="none" stroke-width="1" fill="none" fill-rule="evenodd">
        <g id="pulsar-brand">
            <circle id="Oval" fill="#353B75" cx="148" cy="148" r="147.5"></circle>
            <path d="M234.5,149.8 L153.67,152.23 L192.81,116.31 C194.491808,114.602221 195.100997,112.109374 194.39638,109.818413 C193.691763,107.527452 191.786966,105.807816 189.436126,105.340335 C187.085286,104.872853 184.667498,105.732911 183.14,107.58 L147.6,146.31 L150,70.6 C149.862786,67.0956667 146.982019,64.3254897 143.475,64.3254897 C139.967981,64.3254897 137.087214,67.0956667 136.95,70.6 L139.35,146.27 L104.17,107.75 C102.640148,105.774449 100.115833,104.846957 97.6708558,105.362063 C95.2258786,105.877168 93.2903245,107.744262 92.6875459,110.169114 C92.0847673,112.593965 92.9207962,115.15003 94.84,116.75 L133.31,152.24 L80.75,150.19 C77.2456667,150.327214 74.4754897,153.207981 74.4754897,156.715 C74.4754897,160.222019 77.2456667,163.102786 80.75,163.24 L123.42,161.24 L59.06,189.82 C56.8148982,190.73801 55.2649687,192.826421 55.0366277,195.241185 C54.8082867,197.655949 55.9392823,199.99787 57.9725139,201.320441 C60.0057454,202.643012 62.6050892,202.727593 64.72,201.54 L139.34,162.85 L137,208.35 C137,208.57 137,208.8 137,209.02 C136.762288,211.491334 137.946591,213.883681 140.055936,215.193132 C142.165281,216.502583 144.834719,216.502583 146.944064,215.193132 C149.053409,213.883681 150.237712,211.491334 150,209.02 C150.01498,208.796918 150.01498,208.573082 150,208.35 L147.64,162.85 L222.39,201.58 L222.52,201.65 L222.67,201.72 C224.689704,202.716314 227.080896,202.597983 228.992366,201.407131 C230.903836,200.216279 232.064051,198.122072 232.06,195.87 C232.063448,193.465061 230.740731,191.254125 228.62,190.12 C228.361785,189.982039 228.094504,189.861762 227.82,189.76 L162.5,160.76 L234.5,162.89 C236.943951,163.081867 239.288973,161.886637 240.569728,159.796332 C241.850483,157.706027 241.850483,155.073973 240.569728,152.983668 C239.288973,150.893363 236.943951,149.698133 234.5,149.89 L234.5,149.8 Z" id="Path" fill="#EAEBEB"></path>
        </g>
    </g>
</svg>