<?xml version="1.0" encoding="UTF-8"?>
<svg width="1001px" height="1001px" viewBox="0 0 1001 1001" version="1.1" xmlns="http://www.w3.org/2000/svg" xmlns:xlink="http://www.w3.org/1999/xlink">
    <!-- Generator: Sketch 52.6 (67491) - http://www.bohemiancoding.com/sketch -->
    <title>Artboard</title>
    <desc>Created with Sketch.</desc>
    <g id="Artboard" stroke="none" stroke-width="1" fill="none" fill-rule="evenodd">
        <g id="Group" transform="translate(0.000000, 150.000000)">
            <g id="g3003" transform="translate(500.300380, 350.916526) scale(-1, 1) rotate(-180.000000) translate(-500.300380, -350.916526) translate(0.300380, 0.916526)" fill="#00A1E0">
                <path d="M415.92307,623.153836 C448.141531,656.72422 492.996915,677.543835 542.605376,677.543835 C608.550759,677.543835 666.085758,640.771528 696.724604,586.182298 C723.350373,598.079221 752.822295,604.696529 783.831141,604.696529 C902.771908,604.696529 999.199599,507.429222 999.199599,387.449609 C999.199599,267.455765 902.771908,170.188459 783.831141,170.188459 C769.315757,170.188459 755.12768,171.639997 741.409219,174.414997 C714.427681,126.286536 663.011912,93.7692292 603.996913,93.7692292 C579.292298,93.7692292 555.925375,99.4757676 535.119991,109.622306 C507.768453,45.2849992 444.04307,0.173461487 369.772686,0.173461487 C292.428457,0.173461487 226.511535,49.1130761 201.209227,117.748075 C190.15192,115.399998 178.696151,114.176152 166.941536,114.176152 C74.8542294,114.176152 0.199615203,189.599228 0.199615203,282.654226 C0.199615203,345.013456 33.7415377,399.460378 83.5776908,428.590762 C73.3173063,452.199608 67.610768,478.256146 67.610768,505.650376 C67.610768,612.665759 154.489613,699.416527 261.647303,699.416527 C324.561533,699.416527 380.474224,669.503451 415.92307,623.153836" id="path3005"></path>
            </g>
            <g id="g3007" transform="translate(173.657141, 328.533028) scale(-1, 1) rotate(-180.000000) translate(-173.657141, -328.533028) translate(130.964834, 278.725336)" fill="#FFFFFF">
                <path d="M14.230769,14.230769 C13.6046152,12.5942306 14.4584613,12.2526921 14.6576921,11.9680767 C16.5361536,10.6019229 18.4430766,9.61999984 20.3642304,8.52423063 C30.553461,3.11653841 40.1734609,1.53692305 50.2346146,1.53692305 C70.7269219,1.53692305 83.4492294,12.4376921 83.4492294,29.9842303 L83.4492294,30.3257687 C83.4492294,46.5488454 69.0903835,52.4403838 55.6138453,56.6953837 L53.8634607,57.2646145 C43.7026916,60.5661529 34.9365379,63.4123067 34.9365379,70.1007681 L34.9365379,70.4565373 C34.9365379,76.1773065 40.0596147,80.3896141 48.0003838,80.3896141 C56.8234606,80.3896141 67.2973066,77.4580757 74.0426911,73.7296142 C74.0426911,73.7296142 76.020768,72.448845 76.7465372,74.3699988 C77.1449987,75.3946142 80.5603833,84.5876909 80.9161525,85.5838448 C81.3003833,86.6653832 80.6173064,87.4623063 79.9199987,87.8892293 C72.2211527,92.5711523 61.5765375,95.7730754 50.5619223,95.7730754 L48.5126915,95.7588446 C29.756538,95.7588446 16.6642305,84.4311525 16.6642305,68.193845 L16.6642305,67.8523066 C16.6642305,50.7326915 31.108461,45.1826916 44.6419224,41.3119224 L46.81923,40.6430763 C56.6811529,37.6119225 65.176922,35.0076917 65.176922,28.0630765 L65.176922,27.721538 C65.176922,21.374615 59.6553836,16.6499997 50.7469223,16.6499997 C47.2888454,16.6499997 36.2599994,16.7211536 24.3488458,24.2492304 C22.9115381,25.0888457 22.0719227,25.7007688 20.9619227,26.369615 C20.3784612,26.739615 18.912692,27.3799996 18.2723074,25.444615 L14.230769,14.230769 Z" id="path3009"></path>
            </g>
            <g id="g3011" transform="translate(473.655988, 328.533028) scale(-1, 1) rotate(-180.000000) translate(-473.655988, -328.533028) translate(430.963681, 278.725336)" fill="#FFFFFF">
                <path d="M14.230769,14.230769 C13.6046152,12.5942306 14.4584613,12.2526921 14.6576921,11.9680767 C16.5361536,10.6019229 18.4430766,9.61999984 20.3642304,8.52423063 C30.553461,3.11653841 40.1734609,1.53692305 50.2346146,1.53692305 C70.7269219,1.53692305 83.4492294,12.4376921 83.4492294,29.9842303 L83.4492294,30.3257687 C83.4492294,46.5488454 69.0903835,52.4403838 55.6138453,56.6953837 L53.8634607,57.2646145 C43.7026916,60.5661529 34.9365379,63.4123067 34.9365379,70.1007681 L34.9365379,70.4565373 C34.9365379,76.1773065 40.0596147,80.3896141 48.0003838,80.3896141 C56.8234606,80.3896141 67.2973066,77.4580757 74.0426911,73.7296142 C74.0426911,73.7296142 76.020768,72.448845 76.7465372,74.3699988 C77.1449987,75.3946142 80.5603833,84.5876909 80.9161525,85.5838448 C81.3003833,86.6653832 80.6173064,87.4623063 79.9199987,87.8892293 C72.2211527,92.5711523 61.5765375,95.7730754 50.5619223,95.7730754 L48.5126915,95.7588446 C29.756538,95.7588446 16.6642305,84.4311525 16.6642305,68.193845 L16.6642305,67.8523066 C16.6642305,50.7326915 31.108461,45.1826916 44.6419224,41.3119224 L46.81923,40.6430763 C56.6811529,37.6119225 65.1911528,35.0076917 65.1911528,28.0630765 L65.1911528,27.721538 C65.1911528,21.374615 59.6553836,16.6499997 50.7469223,16.6499997 C47.2888454,16.6499997 36.2599994,16.7211536 24.3488458,24.2492304 C22.9115381,25.0888457 22.0576919,25.6723073 20.9761535,26.369615 C20.6061535,26.611538 18.8699997,27.2803842 18.2723074,25.444615 L14.230769,14.230769 Z" id="path3013"></path>
            </g>
            <g id="g3015" transform="translate(628.649036, 329.739810) scale(-1, 1) rotate(-180.000000) translate(-628.649036, -329.739810) translate(578.841345, 272.816734)" fill="#FFFFFF" fill-rule="nonzero">
                <path d="M71.153845,56.923076 C71.153845,47.00423 69.303845,39.1915378 65.6607682,33.6699995 C62.0603836,28.2053842 56.6099991,25.5442304 49.0107684,25.5442304 C41.397307,25.5442304 35.975384,28.1911534 32.4319226,33.6699995 C28.8457688,39.1773071 27.0242303,47.00423 27.0242303,56.923076 C27.0242303,66.8276912 28.8457688,74.6261526 32.4319226,80.0907679 C35.975384,85.4984602 41.397307,88.1311524 49.0107684,88.1311524 C56.6099991,88.1311524 62.0603836,85.4984602 65.6749989,80.0907679 C69.303845,74.6261526 71.153845,66.8276912 71.153845,56.923076 M88.2592293,75.3092295 C86.5799986,80.9873064 83.9615371,85.9965371 80.4749987,90.1661524 C76.9884603,94.3499985 72.5769219,97.70846 67.3399989,100.156152 C62.1173067,102.589614 55.9411529,103.827691 49.0107684,103.827691 C42.0661532,103.827691 35.8899994,102.589614 30.6673072,100.156152 C25.4303842,97.70846 21.0188458,94.3499985 17.5180766,90.1661524 C14.045769,85.9823063 11.4273075,80.9730756 9.733846,75.3092295 C8.06884602,69.6596143 7.22923065,63.4834605 7.22923065,56.923076 C7.22923065,50.3626915 8.06884602,44.172307 9.733846,38.5369225 C11.4273075,32.8730764 14.0315382,27.8638457 17.5323074,23.6799996 C21.0188458,19.4961535 25.444615,16.1519228 30.6673072,13.7753844 C35.9042302,11.398846 42.0661532,10.1892306 49.0107684,10.1892306 C55.9411529,10.1892306 62.1030759,11.398846 67.3399989,13.7753844 C72.5626911,16.1519228 76.9884603,19.4961535 80.4749987,23.6799996 C83.9615371,27.8496149 86.5799986,32.8588456 88.2592293,38.5369225 C89.9384601,44.1865377 90.7780755,50.3769223 90.7780755,56.923076 C90.7780755,63.4692297 89.9384601,69.6596143 88.2592293,75.3092295" id="path3017"></path>
            </g>
            <g id="g3019" transform="translate(779.106752, 330.008742) scale(-1, 1) rotate(-180.000000) translate(-779.106752, -330.008742) translate(736.414445, 273.085666)" fill="#FFFFFF">
                <path d="M71.153845,28.461538 C70.5846142,30.126538 68.9765373,29.5003841 68.9765373,29.5003841 C66.4861528,28.5469226 63.8392297,27.6646149 61.0215375,27.2234611 C58.1611529,26.7823073 55.016153,26.554615 51.6434607,26.554615 C43.3611531,26.554615 36.7865379,29.016538 32.0761533,33.883461 C27.351538,38.750384 24.704615,46.6199992 24.7330765,57.2646145 C24.7615381,66.9557681 27.0953842,74.2419219 31.293461,79.7919218 C35.4630763,85.3134602 41.8099993,88.1453832 50.2773069,88.1453832 C57.3357683,88.1453832 62.714999,87.3342294 68.3503835,85.5553832 C68.3503835,85.5553832 69.7023066,84.9719217 70.3426912,86.7365371 C71.8369219,90.8919216 72.9469219,93.8661523 74.540768,98.4342292 C74.9961526,99.7292292 73.8861526,100.284229 73.4876911,100.440768 C71.2676912,101.308845 66.0307682,102.717691 62.0746144,103.315383 C58.3746144,103.884614 54.0484607,104.18346 49.2384607,104.18346 C42.0519224,104.18346 35.6480763,102.959614 30.1692303,100.511921 C24.704615,98.0784599 20.0653843,94.7199985 16.3938459,90.5361524 C12.7223075,86.3523063 9.93307676,81.3430756 8.06884602,75.6792295 C6.21884605,70.0296142 5.2796153,63.824999 5.2796153,57.2646145 C5.2796153,43.0765378 9.10769216,31.6065379 16.6642305,23.2103842 C24.2349996,14.785769 35.605384,10.5023075 50.4338453,10.5023075 C59.199999,10.5023075 68.193845,12.2811536 74.6546142,14.8284613 C74.6546142,14.8284613 75.8926911,15.4261536 75.3519219,16.8634613 L71.153845,28.461538 Z" id="path3021"></path>
            </g>
            <g id="g3023" transform="translate(858.843044, 327.353315) scale(-1, 1) rotate(-180.000000) translate(-858.843044, -327.353315) translate(809.035352, 277.545623)" fill="#FFFFFF">
                <path d="M28.461538,56.923076 C29.2726918,62.4303836 30.7953841,67.0126912 33.143461,70.5846142 C36.6869225,76.0065372 42.0946147,78.980768 49.6938453,78.980768 C57.293076,78.980768 62.3165375,75.9923065 65.916922,70.5846142 C68.3076912,67.0126912 69.3465373,62.2311528 69.7592296,56.923076 L28.461538,56.923076 Z M86.0534601,69.0334604 C84.6019217,74.5123065 81.0015371,80.0480756 78.6392295,82.5811525 C74.910768,86.5942294 71.2676912,89.3976909 67.6530758,90.9630754 C62.9284605,92.9838446 57.2646145,94.3215369 51.0599992,94.3215369 C43.8307685,94.3215369 37.270384,93.1119216 31.9480764,90.6073062 C26.611538,88.1026909 22.1288458,84.6873063 18.6138459,80.4323064 C15.0988459,76.1915372 12.4519229,71.1396142 10.7726921,65.4046143 C9.07923062,59.698076 8.22538448,53.4792299 8.22538448,46.9188454 C8.22538448,40.2446147 9.10769216,34.0257687 10.8580767,28.4330765 C12.6226921,22.7976919 15.4403844,17.8311536 19.2542305,13.7184613 C23.0538458,9.57730754 27.9492303,6.3326922 33.8123071,4.06999993 C39.6326917,1.82153843 46.7053839,0.654615374 54.831153,0.668846143 C71.5523065,0.725769219 80.3611525,4.4542307 83.9899986,6.46076913 C84.6303832,6.81653835 85.2423063,7.44269219 84.4738448,9.23576908 L80.6884602,19.837692 C80.1192295,21.4173073 78.5111526,20.8338458 78.5111526,20.8338458 C74.3699988,19.2969228 68.4784604,16.5361536 54.7457683,16.5646151 C45.7661531,16.5788459 39.1061532,19.2257689 34.9365379,23.3669227 C30.6530764,27.6076919 28.5611534,33.8407687 28.1911534,42.6353839 L86.0961524,42.5784608 C86.0961524,42.5784608 87.6188447,42.6069224 87.7753832,44.0869224 C87.8323063,44.7130762 89.7676909,55.9838452 86.0534601,69.0334604 Z" id="path3025"></path>
            </g>
            <g id="g3027" transform="translate(395.107834, 327.353315) scale(-1, 1) rotate(-180.000000) translate(-395.107834, -327.353315) translate(345.300142, 277.545623)" fill="#FFFFFF">
                <path d="M28.461538,56.923076 C29.2869226,62.4303836 30.7953841,67.0126912 33.143461,70.5846142 C36.6869225,76.0065372 42.0946147,78.980768 49.6938453,78.980768 C57.293076,78.980768 62.3165375,75.9923065 65.9311528,70.5846142 C68.3076912,67.0126912 69.3465373,62.2311528 69.7592296,56.923076 L28.461538,56.923076 Z M86.0392294,69.0334604 C84.5876909,74.5123065 81.0015371,80.0480756 78.6392295,82.5811525 C74.910768,86.5942294 71.2676912,89.3976909 67.6530758,90.9630754 C62.9284605,92.9838446 57.2646145,94.3215369 51.0599992,94.3215369 C43.8449993,94.3215369 37.270384,93.1119216 31.9480764,90.6073062 C26.611538,88.1026909 22.1288458,84.6873063 18.6138459,80.4323064 C15.0988459,76.1915372 12.4519229,71.1396142 10.7726921,65.4046143 C9.09346139,59.698076 8.22538448,53.4792299 8.22538448,46.9188454 C8.22538448,40.2446147 9.10769216,34.0257687 10.8580767,28.4330765 C12.6226921,22.7976919 15.4403844,17.8311536 19.2542305,13.7184613 C23.0538458,9.57730754 27.9492303,6.3326922 33.8123071,4.06999993 C39.6326917,1.82153843 46.7053839,0.654615374 54.831153,0.668846143 C71.5523065,0.725769219 80.3611525,4.4542307 83.9899986,6.46076913 C84.6303832,6.81653835 85.2423063,7.44269219 84.4738448,9.23576908 L80.702691,19.837692 C80.1192295,21.4173073 78.5111526,20.8338458 78.5111526,20.8338458 C74.3699988,19.2969228 68.4926912,16.5361536 54.7315376,16.5646151 C45.7661531,16.5788459 39.1061532,19.2257689 34.9365379,23.3669227 C30.6530764,27.6076919 28.5611534,33.8407687 28.1911534,42.6353839 L86.0961524,42.5784608 C86.0961524,42.5784608 87.6188447,42.6069224 87.7753832,44.0869224 C87.8323063,44.7130762 89.7676909,55.9838452 86.0392294,69.0334604 Z" id="path3029"></path>
            </g>
            <g id="g3031" transform="translate(262.831409, 329.691412) scale(-1, 1) rotate(-180.000000) translate(-262.831409, -329.691412) translate(220.139102, 272.768336)" fill="#FFFFFF" fill-rule="nonzero">
                <path d="M28.461538,28.461538 C26.1988457,30.2688457 25.8857688,30.7242303 25.1173073,31.8911533 C23.9788458,33.6699995 23.3953842,36.2030763 23.3953842,39.4192301 C23.3953842,44.5138454 25.074615,48.1711531 28.5611534,50.6330761 C28.5184611,50.6188453 33.5419225,54.9734606 45.3534608,54.8169222 C53.6499991,54.703076 61.0642298,53.4792299 61.0642298,53.4792299 L61.0642298,27.1523073 L61.0784605,27.1523073 C61.0784605,27.1523073 53.721153,25.5726919 45.4388454,25.074615 C33.6557687,24.3630765 28.4188457,28.4757688 28.461538,28.461538 M51.501153,69.1473066 C49.1530761,69.3180758 46.1076916,69.4176912 42.4646147,69.4176912 C37.4980763,69.4176912 32.7023072,68.7915373 28.2053842,67.581922 C23.6799996,66.3723066 19.6099997,64.4796143 16.1092305,61.974999 C12.5942306,59.4561529 9.76230753,56.2399991 7.7130768,52.426153 C5.66384606,48.6123069 4.62499992,44.1153839 4.62499992,39.0776917 C4.62499992,33.9546148 5.5073076,29.5003841 7.27192296,25.8573073 C9.03653831,22.1999996 11.583846,19.1546151 14.8284613,16.8065382 C18.0446151,14.4584613 22.0149996,12.7365383 26.6257688,11.6976921 C31.1653841,10.658846 36.3169225,10.1323075 41.952307,10.1323075 C47.8865377,10.1323075 53.8065376,10.6161537 59.5415375,11.5980767 C65.2196143,12.565769 72.1926911,13.9746152 74.1280757,14.415769 C76.0492295,14.8711536 78.1838449,15.4546151 78.1838449,15.4546151 C79.6211526,15.8103844 79.5073064,17.3473074 79.5073064,17.3473074 L79.4788449,70.2999989 C79.4788449,81.9123064 76.3765372,90.5219216 70.2715373,95.85846 C64.194999,101.180768 55.2438453,103.870383 43.6742301,103.870383 C39.3338455,103.870383 32.3465379,103.272691 28.1626919,102.433075 C28.1626919,102.433075 15.5115382,99.985383 10.3030768,95.9153831 C10.3030768,95.9153831 9.16461524,95.2038446 9.79076907,93.6099985 L13.8892305,82.5953833 C14.4015382,81.1723064 15.7819228,81.6561525 15.7819228,81.6561525 C15.7819228,81.6561525 16.2230767,81.8269217 16.7353843,82.1257679 C27.8780765,88.1880755 41.9665378,88.0030755 41.9665378,88.0030755 C48.2280761,88.0030755 53.0380761,86.7507678 56.2826914,84.2603832 C59.4419221,81.8411525 61.049999,78.1838449 61.049999,70.4707681 L61.049999,68.0230758 C56.0692299,68.7346143 51.501153,69.1473066 51.501153,69.1473066" id="path3033"></path>
            </g>
            <g id="g3035" transform="translate(717.322336, 330.323247) scale(-1, 1) rotate(-180.000000) translate(-717.322336, -330.323247) translate(681.745414, 273.400171)" fill="#FFFFFF">
                <path d="M56.923076,99.615383 C57.3642298,100.924614 56.4392299,101.550768 56.0549991,101.693075 C55.073076,102.077306 50.14923,103.116152 46.3496146,103.358075 C39.0776917,103.799229 35.0361533,102.575383 31.421538,100.953075 C27.8353842,99.3307676 23.8507688,96.7123061 21.6307689,93.7380754 L21.6307689,100.782306 C21.6307689,101.764229 20.9334612,102.546921 19.9657689,102.546921 L5.12307684,102.546921 C4.15538455,102.546921 3.45807687,101.764229 3.45807687,100.782306 L3.45807687,14.415769 C3.45807687,13.4480767 4.25499993,12.6511536 5.22269222,12.6511536 L20.4353843,12.6511536 C21.4030766,12.6511536 22.1857689,13.4480767 22.1857689,14.415769 L22.1857689,57.5634606 C22.1857689,63.3553836 22.8261535,69.1330758 24.1069227,72.7619219 C25.3592304,76.3480757 27.0669226,79.222691 29.1730764,81.2861525 C31.293461,83.3353833 33.698461,84.7726909 36.3311533,85.5838448 C39.0207686,86.4092294 41.9949993,86.679614 44.1011531,86.679614 C47.1323069,86.679614 50.4623069,85.8969217 50.4623069,85.8969217 C51.5723069,85.7688448 52.1984607,86.4519217 52.5684607,87.4623063 C53.5646145,90.1092293 56.3823068,98.0357676 56.923076,99.615383" id="path3037"></path>
            </g>
            <g id="g3039" transform="translate(546.066398, 325.871920) scale(-1, 1) rotate(-180.000000) translate(-546.066398, -325.871920) translate(482.027938, 233.371921)" fill="#FFFFFF">
                <path d="M113.846152,170.769228 C111.996152,171.338459 110.316921,171.72269 108.125383,172.135382 C105.905383,172.533843 103.25846,172.733074 100.255768,172.733074 C89.7819216,172.733074 81.5280756,169.773074 75.7361526,163.938459 C69.9726912,158.132305 66.0592297,149.294998 64.0953836,137.668459 L63.3838451,133.754998 L50.2346146,133.754998 C50.2346146,133.754998 48.6407684,133.811921 48.29923,132.075767 L46.1503839,120.022306 C45.9938454,118.883844 46.4919223,118.158075 48.0288454,118.158075 L60.8223067,118.158075 L47.8438454,45.6949993 C46.8334608,39.860384 45.6665377,35.0646148 44.3715377,31.421538 C43.1049993,27.8353842 41.8669224,25.1457688 40.3299993,23.1819227 C38.8499994,21.3034612 37.455384,19.9088458 35.0361533,19.097692 C33.0438456,18.4288459 30.738461,18.1157689 28.2196149,18.1157689 C26.8249996,18.1157689 24.9607688,18.3434612 23.5803842,18.6280766 C22.2142304,18.8984612 21.4884612,19.1973074 20.4496151,19.6384612 C20.4496151,19.6384612 18.9553843,20.207692 18.357692,18.7134612 C17.8880766,17.4753843 14.4726921,8.09730756 14.0599998,6.94461527 C13.6615382,5.79192298 14.230769,4.89538454 14.9565382,4.62499992 C16.6642305,4.02730763 17.9307689,3.62884609 20.2503843,3.0738461 C23.4665381,2.31961535 26.184615,2.27692304 28.7319226,2.27692304 C34.0542302,2.27692304 38.9211532,3.0311538 42.9484608,4.48269223 C46.9899992,5.94846144 50.51923,8.49576909 53.6499991,11.9396152 C57.0226914,15.6680767 59.143076,19.5673074 61.1638452,24.9038457 C63.1703836,30.1692303 64.8923066,36.715384 66.2584605,44.3430762 L79.3080756,118.158075 L98.3773061,118.158075 C98.3773061,118.158075 99.985383,118.101152 100.312691,119.851537 L102.475768,131.890767 C102.618075,133.043459 102.134229,133.754998 100.583075,133.754998 L82.0688448,133.754998 C82.1684602,134.16769 83.0080756,140.685382 85.1284602,146.818844 C86.0392294,149.423074 87.7469217,151.543459 89.1842293,152.994998 C90.6073062,154.418074 92.2438447,155.428459 94.0369216,156.011921 C95.8726908,156.609613 97.9646138,156.894228 100.255768,156.894228 C101.991921,156.894228 103.713844,156.694997 105.008844,156.424613 C106.801921,156.040382 107.499229,155.841151 107.968844,155.698844 C109.861537,155.129613 110.117691,155.684613 110.487691,156.595382 L114.91346,168.748459 C115.368844,170.05769 114.244614,170.61269 113.846152,170.769228" id="path3041"></path>
            </g>
            <g id="g3043" transform="translate(322.963531, 315.911754) scale(-1, 1) rotate(-180.000000) translate(-322.963531, -315.911754) translate(308.732762, 244.757909)" fill="#FFFFFF">
                <path d="M28.461538,14.230769 C28.461538,13.2630767 27.7642303,12.4803844 26.796538,12.4803844 L11.4415383,12.4803844 C10.473846,12.4803844 9.79076907,13.2630767 9.79076907,14.230769 L9.79076907,137.810767 C9.79076907,138.778459 10.473846,139.561152 11.4415383,139.561152 L26.796538,139.561152 C27.7642303,139.561152 28.461538,138.778459 28.461538,137.810767 L28.461538,14.230769 Z" id="path3045"></path>
            </g>
        </g>
    </g>
</svg>