<svg xmlns="http://www.w3.org/2000/svg" width="34" height="34" viewBox="0 0 34 34">
  <g fill="none" fill-rule="evenodd">
    <rect width="34" height="34" fill="#5457FF" rx="2"/>
    <path fill="#FFF" fill-rule="nonzero" d="M16.7307476,0.432 C20.9711429,0.432 24.472,3.89051254 24.472,8.30171572 L24.472,16.432 L8.14972512,16.432 C3.90932984,16.432 0.472,12.8429934 0.472,8.432 C0.472,4.02079681 3.90932984,0.432 8.14972512,0.432 L16.7307476,0.432 Z M20.7527829,12.6762749 C21.9112155,11.5782833 22.6258462,10.0126706 22.6258462,8.35010959 C22.6258462,4.99095245 19.7080416,2.31435294 16.1091047,2.31435294 L8.83469229,2.31435294 C5.23575538,2.31435294 2.31815385,5.07304914 2.31815385,8.432 C2.31815385,11.7915697 5.23575538,14.5496471 8.83469229,14.5496471 L16.1091047,14.5496471 C17.9269465,14.5496471 19.571003,13.7963378 20.7527829,12.6762749 Z M14.2984618,6.84234407 C14.1511293,6.84234407 14.0106257,6.81324041 13.8807068,6.76222135 L11.8054187,8.33767609 C11.8136133,8.39483147 11.8190764,8.45268814 11.8190764,8.51212273 C11.8190764,8.54192768 11.816857,8.57120666 11.8148084,8.60048565 L13.8562936,10.1108955 C13.9928707,10.0537401 14.1419104,10.0216559 14.2984618,10.0216559 C14.9465198,10.0216559 15.472,10.5614762 15.472,11.226828 C15.472,11.892355 14.9465198,12.432 14.2984618,12.432 C13.650233,12.432 13.1247529,11.892355 13.1247529,11.226828 C13.1247529,11.1886075 13.1268015,11.1507377 13.130216,11.1133938 L11.1100708,9.61858777 C10.9676893,9.68187947 10.8107964,9.71711944 10.6457089,9.71711944 C9.99748015,9.71711944 9.472,9.17764979 9.472,8.51212273 C9.472,7.84642034 9.99748015,7.30695069 10.6457089,7.30695069 C10.7800666,7.30695069 10.9086197,7.3311453 11.0288075,7.37392417 L13.1331182,5.77620337 C13.1279966,5.73061933 13.1247529,5.68433399 13.1247529,5.63717204 C13.1247529,4.97164497 13.650233,4.432 14.2984618,4.432 C14.9465198,4.432 15.472,4.97164497 15.472,5.63717204 C15.472,6.3026991 14.9465198,6.84234407 14.2984618,6.84234407 Z" transform="translate(3.528 8.568)"/>
  </g>
</svg>
