<?xml version="1.0" encoding="UTF-8"?>
<svg width="47px" height="47px" viewBox="0 0 47 47" version="1.1" xmlns="http://www.w3.org/2000/svg" xmlns:xlink="http://www.w3.org/1999/xlink">
    <!-- Generator: Sketch 52.6 (67491) - http://www.bohemiancoding.com/sketch -->
    <title>Artboard Copy</title>
    <desc>Created with Sketch.</desc>
    <g id="Artboard-Copy" stroke="none" stroke-width="1" fill="none" fill-rule="evenodd">
        <rect fill="#CB3826" x="0" y="0" width="47" height="47"></rect>
        <g id="logo--full" fill="#FFFFFF">
            <g id="S">
                <g id="Kasten">
                    <path d="M27.57,30.11 C25.4318335,28.5179723 23.0739231,27.2447006 20.57,26.33 C18.6855194,25.5684503 16.8884992,24.6062398 15.21,23.46 C11.21,20.6733333 9.21,17.2166667 9.21,13.09 C9.11022613,10.604612 9.88519341,8.16293424 11.4,6.19 C11.6667789,5.85903499 11.9540069,5.54508819 12.26,5.25 L3.71,7.25 C1.22519953,7.8250499 -0.323559691,10.3048551 0.25,12.79 L7.33,43.38 C7.90519713,45.8599656 10.3782105,47.407276 12.86,46.84 L16.36,46 L16.09,45.93 C13.7296424,45.2042384 11.4560391,44.221693 9.31,43 L13,34.84 C15.9363043,37.2309722 19.6134443,38.5250426 23.4,38.5 C27.4,38.5 29.4,37.07 29.4,34.23 C29.4392566,32.6516169 28.7674258,31.13908 27.57,30.11 Z" id="Path"></path>
                    <path d="M46.91,34.22 L39.83,3.63 C39.2548029,1.15003437 36.7817895,-0.397275973 34.3,0.17 L29.15,1.36 C29.7433333,1.45333333 30.33,1.56333333 30.91,1.69 C33.2183161,2.20397204 35.4526074,3.00697295 37.56,4.08 L34.56,12.08 C32.32,10.16 29.19,9.2 25.19,9.2 C21.6033333,9.2 19.8066667,10.6266667 19.8,13.48 C19.8796174,14.7044929 20.5366946,15.818183 21.57,16.48 C23.9421418,17.9843775 26.4786414,19.2123654 29.13,20.14 C31.4311769,20.9848677 33.5869434,22.1825157 35.52,23.69 C36.2591672,24.2799938 36.9300062,24.9508328 37.52,25.69 C39.2451108,27.93679 40.1454182,30.7083248 40.07,33.54 C40.1525192,36.2736863 39.2869137,38.9517637 37.62,41.12 L43.45,39.77 C44.6468411,39.4963769 45.685098,38.7566519 46.3346072,37.7148092 C46.9841163,36.6729665 47.1912175,35.4150795 46.91,34.22 Z" id="Path"></path>
                </g>
            </g>
        </g>
    </g>
</svg>