<svg xmlns="http://www.w3.org/2000/svg" width="30" height="30" viewBox="0 0 30 30">
  <g fill-rule="evenodd" transform="translate(0 3)">
    <path d="M6.47068,12.6658 L15.82644,3.32 C17.1422534,2.0111934 19.2681866,2.0111934 20.584,3.32 L21.31108,4.04708 L22.76856,2.5896 L22.04148,1.8592 C19.9186923,-0.259046377 16.4817877,-0.259046377 14.359,1.8592 L5.00988,11.20832 L6.47068,12.6658 Z"/>
    <path fill-rule="nonzero" d="M18.96052,6.39764 L17.50304,4.94016 L8.14396,14.29924 C6.82744569,15.6148374 4.69369754,15.6140942 3.37810006,14.2975799 C2.06250258,12.9810657 2.06324576,10.8473175 3.37976,9.53172 L11.454,1.45748 L9.99652,0 L1.92228,8.07424 C0.523483629,9.44060207 -0.0329002357,11.453384 0.465532905,13.3441883 C0.963966045,15.2349927 2.44027379,16.7119387 4.3308625,17.211189 C6.2214512,17.7104394 8.23447343,17.1549256 9.60144,15.75672 L18.96052,6.39764 Z M28.27644,8.07424 C26.1528979,5.95781862 22.7175021,5.95781862 20.59396,8.07424 L11.23488,17.43332 L12.69236,18.8908 L22.05144,9.53172 C23.0155395,8.56953393 24.4640821,8.28236466 25.7223399,8.80397499 C26.9805977,9.32558532 27.8011084,10.5533898 27.80168,11.91548 C27.8051313,12.8119495 27.4458986,13.6717133 26.80568,14.29924 L18.7414,22.37348 L20.2022,23.83096 L28.27644,15.75672 C30.3946864,13.6339323 30.3946864,10.1970277 28.27644,8.07424 Z"/>
    <path d="M23.72804,11.16516 L14.36896,20.52092 C13.0512391,21.8345182 10.9191609,21.8345182 9.60144,20.52092 L8.87436,19.79052 L7.41688,21.248 L8.14396,21.9784 C10.2675021,24.0948214 13.7028979,24.0948214 15.82644,21.9784 L25.18552,12.616 L23.72804,11.16516 Z"/>
  </g>
</svg>
