<?xml version="1.0" encoding="UTF-8"?>
<svg width="130px" height="130px" viewBox="0 0 130 130" version="1.1" xmlns="http://www.w3.org/2000/svg" xmlns:xlink="http://www.w3.org/1999/xlink">
    <!-- Generator: Sketch 52.6 (67491) - http://www.bohemiancoding.com/sketch -->
    <title>WhatsApp_logo</title>
    <desc>Created with Sketch.</desc>
    <defs>
        <linearGradient x1="50.0005452%" y1="99.9896397%" x2="50.0005452%" y2="-0.0105082593%" id="linearGradient-1">
            <stop stop-color="#20B038" offset="0%"></stop>
            <stop stop-color="#60D66A" offset="100%"></stop>
        </linearGradient>
        <linearGradient x1="50.0007039%" y1="100.002858%" x2="50.0007039%" y2="0.00300051009%" id="linearGradient-2">
            <stop stop-color="#F9F9F9" offset="0%"></stop>
            <stop stop-color="#FFFFFF" offset="100%"></stop>
        </linearGradient>
    </defs>
    <g id="Page-1" stroke="none" stroke-width="1" fill="none" fill-rule="evenodd">
        <g id="WhatsApp_logo" transform="translate(-1.000000, -1.000000)">
            <g id="Group" transform="translate(0.920447, 0.364348)">
                <path d="M36.4109772,109.762278 L38.3598275,110.918253 C46.548736,115.78119 55.9372217,118.352986 65.5112681,118.358169 L65.5321534,118.358169 C94.9351136,118.358169 118.865604,94.4174411 118.876705,64.9932271 C118.88133,50.7330171 113.338188,37.3258761 103.266477,27.2382618 C93.1940247,17.1524988 79.8022002,11.5942214 65.551209,11.5882973 C36.126048,11.5882973 12.1955572,35.525323 12.1844569,64.949537 C12.1805717,75.0325231 14.999319,84.8526277 20.3400643,93.3481428 L21.6094811,95.367517 L16.2191543,115.059562 L36.4109772,109.762278 Z M0.810325086,130.313316 L9.91556696,97.0439974 C4.2993481,87.3070152 1.34480663,76.2615496 1.34943178,64.9465379 C1.3631222,29.5463983 30.1529735,0.74606507 65.5334688,0.74606507 C82.7016303,0.753470182 98.8159991,7.43954613 110.933874,19.5754145 C123.050454,31.7110978 129.721206,47.8425796 129.715656,64.9983737 C129.70067,100.396662 100.904714,129.202549 65.5334688,129.202549 C65.5308602,129.202549 65.5347742,129.202549 65.5334688,129.202549 L65.5060565,129.202549 C54.7646239,129.198847 44.2100472,126.502645 34.835807,121.386453 L0.810325086,130.313316 Z" id="Shape" fill="#FFFFFF" fill-rule="nonzero"></path>
                <path d="M3.56136025,64.9798609 C3.55747513,75.9022165 6.40952342,86.5657634 11.8325963,95.9665535 L3.04186417,128.084377 L35.887781,119.466122 C44.9375212,124.400889 55.1265266,127.006008 65.4960976,127.00934 L65.5228568,127.00934 C99.671214,127.00934 127.466474,99.203143 127.481275,65.0285495 C127.48775,48.4668306 121.048626,32.8959157 109.349789,21.1791767 C97.6528015,9.46410384 82.0965949,3.00888228 65.5200818,3.00110691 C31.3698745,3.00110691 3.57461406,30.8036012 3.5598136,64.980046" id="Shape" fill="url(#linearGradient-1)" fill-rule="nonzero"></path>
                <path d="M1.34869175,64.9613481 C1.34480663,76.2761747 4.2993481,87.3229361 9.91556696,97.0588076 L0.809585063,130.326275 L34.8339884,121.399227 C44.2087836,126.514864 54.7628053,129.21088 65.5042379,129.215323 L65.5316502,129.215323 C100.902895,129.215323 129.699037,100.409436 129.713837,65.0111475 C129.719757,47.8544278 123.048821,31.7233162 110.932056,19.5881883 C98.8134405,7.45306046 82.7001817,0.766244001 65.5316502,0.758838888 C30.1530049,0.758838888 1.36241363,29.5591721 1.34761317,64.9593117 L1.34869175,64.9613481 Z M21.6094404,95.3813645 L20.3393576,93.3627309 C14.9986123,84.866105 12.179865,75.0461855 12.1837501,64.964125 C12.1954055,35.5417624 36.1253413,11.6028854 65.5505022,11.6028854 C79.8000134,11.6084393 93.192208,17.167272 103.26577,27.2528499 C113.338222,37.3391683 118.880623,50.7474201 118.876738,65.0059639 C118.863686,94.4301779 94.9332969,118.370906 65.5303366,118.370906 L65.5094513,118.370906 C55.9355899,118.365352 46.5463643,115.793742 38.3580108,110.931545 L36.4091604,109.77557 L16.2176354,115.072817 L21.6094404,95.3813645 Z" id="Shape" fill="url(#linearGradient-2)" fill-rule="nonzero"></path>
                <path d="M49.4908821,38.1178158 C48.2893439,35.4453108 47.0251258,35.3918089 45.8823454,35.3447864 C44.947086,35.3049839 43.8774383,35.3075757 42.8090303,35.3075757 C41.7393272,35.3075757 40.0019384,35.709229 38.5328079,37.3151017 C37.0623639,38.9210484 32.9193641,42.8030304 32.9193641,50.6981761 C32.9193641,58.5940623 38.666752,66.2233644 39.4674568,67.2950693 C40.2695677,68.3648303 50.5620653,85.0852963 66.8612549,91.5171918 C80.4084843,96.8627573 83.1652546,95.7995683 86.1055506,95.5316883 C89.0458467,95.2645674 95.5939394,91.6510392 96.9298657,87.9036821 C98.2665136,84.1568804 98.2665136,80.945098 97.8657727,80.27438 C97.4650318,79.6056057 96.3953287,79.2039524 94.7917175,78.4019973 C93.1874774,77.5993572 85.3033288,73.7167827 83.8336433,73.181208 C82.3631993,72.6463182 81.2940697,72.3791973 80.2243666,73.9858104 C79.155311,75.5904427 76.0839384,79.204008 75.1479944,80.274417 C74.212735,81.3467883 73.2768465,81.4806728 71.6732168,80.6780141 C70.0689767,79.8727637 64.9038573,78.1798995 58.7766526,72.7136307 C54.009055,68.4601341 50.7906954,63.2073177 49.8547514,61.6005934 C48.9194919,59.9959611 49.7549038,59.1267305 50.5589757,58.3266081 C51.2795175,57.6075532 52.1632159,56.4529296 52.9653452,55.516368 C53.765495,54.5791955 54.0324397,53.9104213 54.5669768,52.8399752 C55.1021613,51.7688998 54.8345691,50.8317088 54.4338282,50.0289946 C54.0324397,49.2263545 50.9159442,41.2905918 49.4899201,38.117316" id="Path" fill="#FFFFFF"></path>
            </g>
        </g>
    </g>
</svg>