<?xml version="1.0" encoding="UTF-8"?>
<svg width="750px" height="750px" viewBox="0 0 750 750" version="1.1" xmlns="http://www.w3.org/2000/svg" xmlns:xlink="http://www.w3.org/1999/xlink">
    <!-- Generator: Sketch 52.6 (67491) - http://www.bohemiancoding.com/sketch -->
    <title>Artboard Copy 4</title>
    <desc>Created with Sketch.</desc>
    <g id="Artboard-Copy-4" stroke="none" stroke-width="1" fill="none" fill-rule="evenodd">
        <g id="YouTube_Logo_2017" transform="translate(0.000000, 114.000000)">
            <g id="Group">
                <path d="M730.942623,81.8341176 C722.336066,49.8388235 697.131148,24.6117647 665.163934,15.9976471 C606.762295,0 373.155738,0 373.155738,0 C373.155738,0 139.54918,0 81.147541,15.3823529 C49.795082,23.9964706 23.9754098,49.8388235 15.3688525,81.8341176 C0,140.287059 0,261.5 0,261.5 C0,261.5 0,383.328235 15.3688525,441.165882 C23.9754098,473.161176 49.1803279,498.388235 81.147541,507.002353 C140.163934,523 373.155738,523 373.155738,523 C373.155738,523 606.762295,523 665.163934,507.617647 C697.131148,499.003529 722.336066,473.776471 730.942623,441.781176 C746.311475,383.328235 746.311475,262.115294 746.311475,262.115294 C746.311475,262.115294 746.92623,140.287059 730.942623,81.8341176 Z" id="Path" fill="#FF0000"></path>
                <polygon id="Path" fill="#FFFFFF" points="298.770492 373.483529 493.032787 261.5 298.770492 149.516471"></polygon>
            </g>
        </g>
    </g>
</svg>