<?xml version="1.0" encoding="UTF-8"?>
<svg width="316px" height="316px" viewBox="0 0 316 316" version="1.1" xmlns="http://www.w3.org/2000/svg" xmlns:xlink="http://www.w3.org/1999/xlink">
    <!-- Generator: Sketch 52.6 (67491) - http://www.bohemiancoding.com/sketch -->
    <title>Artboard Copy 4</title>
    <desc>Created with Sketch.</desc>
    <defs>
        <linearGradient x1="43.734%" y1="8.208%" x2="57.544%" y2="93.198%" id="linearGradient-1">
            <stop stop-color="#D92231" offset="0%"></stop>
            <stop stop-color="#BA2234" offset="100%"></stop>
        </linearGradient>
    </defs>
    <g id="Artboard-Copy-4" stroke="none" stroke-width="1" fill="none" fill-rule="evenodd">
        <g id="zoho-1" transform="translate(29.000000, 0.000000)">
            <g id="Group" transform="translate(0.000000, 0.322034)">
                <polygon id="Path" fill="#760D16" points="225.390625 1.36836158 256.25 208.186441 242.1875 280.905085 240.234375 278.363842 210.15625 78.5830508 210.15625 74.6734463 223.4375 4.88700565"></polygon>
                <polygon id="Path" fill="#EF463E" points="0 108.296045 14.6484375 35.1864407 225.390625 1.36836158 211.132812 75.8463277 211.132812 80.7333333 2.5390625 110.250847"></polygon>
                <polygon id="Path" fill="url(#linearGradient-1)" points="211.132812 75.8463277 242.1875 280.905085 33.59375 313.550282 0 108.296045"></polygon>
                <path d="M188.671875,248.259887 C187.109375,246.305085 184.765625,244.936723 182.03125,243.959322 C179.296875,242.981921 175.976562,242.59096 171.875,242.59096 C168.164062,242.59096 163.867188,242.981921 159.179688,243.763842 L104.101562,253.146893 C104.6875,248.846328 106.835937,243.372881 110.546875,236.531073 C114.648437,228.907345 120.898437,219.719774 128.90625,209.163842 C131.640625,205.449718 133.789062,202.712994 135.351562,200.758192 C136.328125,199.389831 137.890625,197.630508 139.84375,195.089266 C152.539062,178.473446 160.15625,164.985311 163.28125,154.429379 C165.039062,148.369492 166.015625,142.309605 166.40625,136.249718 C166.601562,134.490395 166.601562,132.926554 166.601562,131.362712 C166.601562,127.062147 166.210937,122.761582 165.429687,118.461017 C164.84375,114.551412 163.867187,111.423729 162.5,108.882486 C161.132812,106.341243 159.570312,104.386441 157.617187,103.213559 C155.46875,101.845198 152.148437,101.258757 148.046875,101.258757 C144.726562,101.258757 140.625,101.649718 135.742187,102.431638 L72.0703125,113.378531 C64.453125,114.746893 58.59375,116.897175 55.078125,120.415819 C52.1484375,123.152542 50.78125,126.671186 50.78125,130.580791 C50.78125,131.558192 50.78125,132.731073 50.9765625,133.903955 C51.953125,139.377401 54.6875,143.287006 59.1796875,145.241808 C61.9140625,146.414689 65.0390625,147.00113 68.9453125,147.00113 C71.484375,147.00113 74.4140625,146.80565 77.5390625,146.219209 L130.664063,136.836158 C130.664063,137.813559 130.859375,138.79096 130.859375,139.572881 C130.859375,142.896045 130.273438,146.219209 129.101562,149.346893 C127.539062,153.842938 123.632812,160.098305 117.1875,168.112994 C115.429688,170.263277 112.695312,173.781921 108.984375,178.277966 C94.53125,195.675706 84.375,210.532203 78.125,222.847458 C73.6328125,231.448588 70.703125,239.658757 68.9453125,248.064407 C67.96875,252.951412 67.3828125,257.447458 67.3828125,261.943503 C67.3828125,265.071186 67.578125,268.19887 68.1640625,271.131073 C68.9453125,275.431638 69.921875,278.950282 71.2890625,281.687006 C72.65625,284.423729 74.609375,286.574011 76.7578125,287.746893 C78.90625,288.919774 81.8359375,289.310734 86.1328125,289.310734 C91.40625,289.310734 98.6328125,288.528814 107.8125,286.964972 L165.625,276.99548 C175.78125,275.236158 183.007812,272.694915 187.109375,269.371751 C190.429687,266.635028 192.1875,262.920904 192.1875,258.620339 C192.1875,257.447458 191.992187,256.274576 191.796875,255.101695 C191.40625,252.560452 190.429687,250.214689 188.671875,248.259887 Z" id="Path" fill="#FFFFFF"></path>
            </g>
        </g>
    </g>
</svg>